<svg xmlns="http://www.w3.org/2000/svg" xmlns:xlink="http://www.w3.org/1999/xlink" xmlns:lucid="lucid" width="1580.4" height="1369.6"><g transform="translate(721.3255269945257 349.0978064375055)" lucid:page-tab-id="u-wxcOIDMuqF"><path d="M-1000-500h2000v2000h-2000z" fill="#fff"/><path d="M105.45 366.42H-79.5M125.45 366.42h-20m10-10v20m-10-20v20" stroke="#3a414a" fill="none"/><path d="M-119.28 366.42h20m-20 10l20-10m-20-10l20 10m20 0c0 5.52-4.47 10-10 10-5.52 0-10-4.48-10-10 0-5.53 4.48-10 10-10 5.53 0 10 4.47 10 10z" stroke="#3a414a" fill="#fff"/><path d="M-238.94 220v45.92" stroke="#3a414a" fill="none"/><path d="M-238.94 180.5v20m-10-10h20m0 20c0 5.52-4.47 10-10 10-5.52 0-10-4.48-10-10s4.48-10 10-10c5.53 0 10 4.48 10 10z" stroke="#3a414a" fill="#fff"/><path d="M-238.94 285.92v-20m10 10h-20m20-10h-20M-452.5 517.32v-138.9a12 12 0 0 1 12-12h140" stroke="#3a414a" fill="none"/><path d="M-452.5 556.82v-20m10 10h-20m20-20c0 5.52-4.47 10-10 10-5.52 0-10-4.48-10-10s4.48-10 10-10c5.53 0 10 4.48 10 10z" stroke="#3a414a" fill="#fff"/><path d="M-280.5 366.42h-20m10-10v20m-10-20v20M-497.87 357.4v159.42M-497.87 337.4v20m-10-10h20m-20 10h20" stroke="#3a414a" fill="none"/><path d="M-497.87 556.6v-20m10 20l-10-20m-10 20l10-20m10-10c0 5.52-4.48 10-10 10-5.53 0-10-4.48-10-10 0-5.53 4.47-10 10-10 5.52 0 10 4.47 10 10z" stroke="#3a414a" fill="#fff"/><path d="M-500 63.18v73.22M-500 43.18v20m-10-10h20m-20 10h20" stroke="#3a414a" fill="none"/><path d="M-500 176.18v-20m10 20l-10-20m-10 20l10-20m10-10c0 5.52-4.48 10-10 10s-10-4.48-10-10 4.48-10 10-10 10 4.48 10 10z" stroke="#3a414a" fill="#fff"/><path d="M447 300H306.45" stroke="#3a414a" fill="none"/><path d="M486.77 300h-20m20-10l-20 10m20 10l-20-10m0 0c0 5.52-4.47 10-10 10-5.52 0-10-4.48-10-10s4.48-10 10-10c5.53 0 10 4.48 10 10z" stroke="#3a414a" fill="#fff"/><path d="M286.45 300h20m-10 10v-20m10 20v-20M171.32-260.6H-125.6a12 12 0 0 0-12 12v514.52" stroke="#3a414a" fill="none"/><path d="M211.1-260.6h-20m20-10l-20 10m20 10l-20-10m0 0c0 5.54-4.48 10-10 10s-10-4.46-10-10c0-5.5 4.48-10 10-10s10 4.5 10 10z" stroke="#3a414a" fill="#fff"/><path d="M-137.6 285.92v-20m10 10h-20m20-10h-20M-261.73 559.5v-72.58M-261.73 579.5v-20m10 10h-20m20-10h-20" stroke="#3a414a" fill="none"/><path d="M-261.73 447.14v20m-10-20l10 20m10-20l-10 20m10 10c0 5.52-4.48 10-10 10s-10-4.48-10-10 4.48-10 10-10 10 4.48 10 10z" stroke="#3a414a" fill="#fff"/><path d="M-280 760.5v43M-280 740.5v20m-10-10h20m-20 10h20" stroke="#3a414a" fill="none"/><path d="M-280 843.26v-20m10 20l-10-20m-10 20l10-20m10-10c0 5.53-4.48 10-10 10s-10-4.47-10-10c0-5.52 4.48-10 10-10s10 4.48 10 10z" stroke="#3a414a" fill="#fff"/><path d="M-6.48 900h-165.8M13.52 900h-20m10-10v20m-10-20v20M-192.3 900h20m-10 10v-20m10 20v-20M-25.98 836.83h-142.07a12 12 0 0 1-12-12v-337.9" stroke="#3a414a" fill="none"/><path d="M13.52 836.83h-20m10-10v20m-10-10c0 5.53-4.47 10-10 10-5.52 0-10-4.47-10-10 0-5.52 4.48-10 10-10 5.53 0 10 4.48 10 10zM-180.05 447.14v20m-10-20l10 20m10-20l-10 20m10 10c0 5.52-4.48 10-10 10s-10-4.48-10-10 4.48-10 10-10 10 4.48 10 10zM-580-109.32a8 8 0 0 1 8-8h144a8 8 0 0 1 8 8v144a8 8 0 0 1-8 8h-144a8 8 0 0 1-8-8z" stroke="#3a414a" fill="#fff"/><use xlink:href="#a" transform="matrix(1,0,0,1,-575,-112.31886689854514) translate(31.044135802469143 49.636111111111106)"/><use xlink:href="#b" transform="matrix(1,0,0,1,-575,-112.31886689854514) translate(37.0567901234568 81.90277777777777)"/><use xlink:href="#c" transform="matrix(1,0,0,1,-575,-112.31886689854514) translate(22.753395061728405 114.16944444444442)"/><path d="M-580 184.9a8 8 0 0 1 8-8h144a8 8 0 0 1 8 8v144a8 8 0 0 1-8 8h-144a8 8 0 0 1-8-8z" stroke="#3a414a" fill="#fff"/><use xlink:href="#d" transform="matrix(1,0,0,1,-575,181.9022002318785) translate(13.790432098765443 63.698611111111106)"/><use xlink:href="#e" transform="matrix(1,0,0,1,-575,181.9022002318785) translate(37.0567901234568 95.96527777777776)"/><path d="M-577.87 565.32a8 8 0 0 1 8-8h144a8 8 0 0 1 8 8v144a8 8 0 0 1-8 8h-144a8 8 0 0 1-8-8z" stroke="#3a414a" fill="#fff"/><use xlink:href="#f" transform="matrix(1,0,0,1,-572.8742786881046,562.3188668985451) translate(12.109876543209893 63.698611111111106)"/><use xlink:href="#g" transform="matrix(1,0,0,1,-572.8742786881046,562.3188668985451) translate(62.003703703703714 63.698611111111106)"/><use xlink:href="#h" transform="matrix(1,0,0,1,-572.8742786881046,562.3188668985451) translate(10.914814814814832 95.96527777777776)"/><path d="M-318.94 28a8 8 0 0 1 8-8h144a8 8 0 0 1 8 8v144a8 8 0 0 1-8 8h-144a8 8 0 0 1-8-8z" stroke="#3a414a" fill="#fff"/><use xlink:href="#a" transform="matrix(1,0,0,1,-313.93595845945583,25) translate(31.044135802469143 63.698611111111106)"/><use xlink:href="#i" transform="matrix(1,0,0,1,-313.93595845945583,25) translate(45.19814814814815 95.96527777777776)"/><path d="M14.02 828a8 8 0 0 1 8-8h158.43a8 8 0 0 1 8 8v144a8 8 0 0 1-8 8H22.02a8 8 0 0 1-8-8z" stroke="#3a414a" fill="#fff"/><use xlink:href="#j" transform="matrix(1,0,0,1,19.023775174802566,825) translate(37.79722222222223 82.4486111111111)"/><path d="M-367.2 852a8 8 0 0 1 8-8h158.4a8 8 0 0 1 8 8v144a8 8 0 0 1-8 8h-158.4a8 8 0 0 1-8-8z" stroke="#3a414a" fill="#fff"/><use xlink:href="#k" transform="matrix(1,0,0,1,-362.21172491832834,848.987512436243) translate(14.605555555555569 82.4486111111111)"/><path d="M-360 588a8 8 0 0 1 8-8h144a8 8 0 0 1 8 8v144a8 8 0 0 1-8 8h-144a8 8 0 0 1-8-8z" stroke="#3a414a" fill="#fff"/><use xlink:href="#l" transform="matrix(1,0,0,1,-355,585) translate(37.72901234567902 82.4486111111111)"/><path d="M-120 628a8 8 0 0 1 8-8H32a8 8 0 0 1 8 8v144a8 8 0 0 1-8 8h-144a8 8 0 0 1-8-8z" stroke="#3a414a" fill="#fff"/><use xlink:href="#m" transform="matrix(1,0,0,1,-115,625) translate(42.92006172839507 82.4486111111111)"/><path d="M131.74 636.1a8 8 0 0 1 8-8h144a8 8 0 0 1 8 8v144a8 8 0 0 1-8 8h-144a8 8 0 0 1-8-8z" stroke="#3a414a" fill="#fff"/><use xlink:href="#n" transform="matrix(1,0,0,1,136.74227078782513,633.1090002777926) translate(37.69166666666667 82.4486111111111)"/><path d="M383.68 637.58a8 8 0 0 1 8-8h144a8 8 0 0 1 8 8v144a8 8 0 0 1-8 8h-144a8 8 0 0 1-8-8z" stroke="#3a414a" fill="#fff"/><use xlink:href="#o" transform="matrix(1,0,0,1,388.67452565159795,634.5833333333333) translate(6.881481481481487 63.698611111111106)"/><use xlink:href="#p" transform="matrix(1,0,0,1,388.67452565159795,634.5833333333333) translate(92.55246913580247 63.698611111111106)"/><use xlink:href="#q" transform="matrix(1,0,0,1,388.67452565159795,634.5833333333333) translate(39.26018518518519 95.96527777777776)"/><path d="M487.5 228a8 8 0 0 1 8-8h144a8 8 0 0 1 8 8v144a8 8 0 0 1-8 8h-144a8 8 0 0 1-8-8z" stroke="#3a414a" fill="#fff"/><use xlink:href="#r" transform="matrix(1,0,0,1,492.4962127555865,225) translate(49.71697530864198 82.4486111111111)"/><path d="M125.95 228a8 8 0 0 1 8-8h144a8 8 0 0 1 8 8v144a8 8 0 0 1-8 8h-144a8 8 0 0 1-8-8z" stroke="#3a414a" fill="#fff"/><use xlink:href="#s" transform="matrix(1,0,0,1,130.94863246947023,225) translate(33.994444444444454 82.4486111111111)"/><path d="M501.84 43.4a8 8 0 0 1 8-8h144a8 8 0 0 1 8 8v144a8 8 0 0 1-8 8h-144a8 8 0 0 1-8-8z" stroke="#3a414a" fill="#fff"/><use xlink:href="#t" transform="matrix(1,0,0,1,506.8372628257989,40.40219356249446) translate(13.86512345679013 64.24444444444444)"/><use xlink:href="#u" transform="matrix(1,0,0,1,506.8372628257989,40.40219356249446) translate(-6.301543209876542 96.5111111111111)"/><path d="M211.82 27.4a8 8 0 0 1 8-8h144a8 8 0 0 1 8 8v144a8 8 0 0 1-8 8h-144a8 8 0 0 1-8-8z" stroke="#3a414a" fill="#fff"/><use xlink:href="#v" transform="matrix(1,0,0,1,216.8250122150526,24.402193562494517) translate(12.072530864197546 82.4486111111111)"/><use xlink:href="#w" transform="matrix(1,0,0,1,216.8250122150526,24.402193562494517) translate(70.92932098765434 82.4486111111111)"/><path d="M-41.55 27.4a8 8 0 0 1 8-8h144a8 8 0 0 1 8 8v144a8 8 0 0 1-8 8h-144a8 8 0 0 1-8-8z" stroke="#3a414a" fill="#fff"/><use xlink:href="#x" transform="matrix(1,0,0,1,-36.547580286116215,24.402193562494517) translate(7.479012345679024 63.698611111111106)"/><use xlink:href="#y" transform="matrix(1,0,0,1,-36.547580286116215,24.402193562494517) translate(79.92962962962963 63.698611111111106)"/><use xlink:href="#z" transform="matrix(1,0,0,1,-36.547580286116215,24.402193562494517) translate(1.9891975308642031 95.96527777777776)"/><path d="M211.82-340.6a8 8 0 0 1 8-8h144a8 8 0 0 1 8 8v144a8 8 0 0 1-8 8h-144a8 8 0 0 1-8-8z" stroke="#3a414a" fill="#fff"/><use xlink:href="#a" transform="matrix(1,0,0,1,216.8250122150526,-343.5978064375055) translate(31.044135802469143 63.698611111111106)"/><use xlink:href="#A" transform="matrix(1,0,0,1,216.8250122150526,-343.5978064375055) translate(36.272530864197535 95.96527777777776)"/><path d="M-280 294.42a8 8 0 0 1 8-8h144a8 8 0 0 1 8 8v144a8 8 0 0 1-8 8h-144a8 8 0 0 1-8-8z" stroke="#3a414a" fill="#fff"/><use xlink:href="#d" transform="matrix(1,0,0,1,-275,291.41666666666663) translate(13.790432098765443 63.698611111111106)"/><use xlink:href="#B" transform="matrix(1,0,0,1,-275,291.41666666666663) translate(15.433641975308646 95.96527777777776)"/><path d="M227.9 750.32a8 8 0 0 1 8-8h47.84a8 8 0 0 1 8 8v44a8 8 0 0 1-8 8H235.9a8 8 0 0 1-8-8z" stroke="#000" stroke-opacity="0" fill="#fff" fill-opacity="0"/><use xlink:href="#C" transform="matrix(1,0,0,1,232.901170717613,747.317333611126) translate(18 30.025)"/><path d="M-19.5 739.1a8 8 0 0 1 8-8h47.84a8 8 0 0 1 8 8v44a8 8 0 0 1-8 8H-11.5a8 8 0 0 1-8-8z" stroke="#000" stroke-opacity="0" fill="#fff" fill-opacity="0"/><use xlink:href="#D" transform="matrix(1,0,0,1,-14.500049999999874,736.1105335652118) translate(18 30.025)"/><path d="M484.14 751.8a8 8 0 0 1 8-8h47.84a8 8 0 0 1 8 8v44a8 8 0 0 1-8 8h-47.84a8 8 0 0 1-8-8z" stroke="#000" stroke-opacity="0" fill="#fff" fill-opacity="0"/><use xlink:href="#E" transform="matrix(1,0,0,1,489.13564971915065,748.7916666666666) translate(13.5 30.025)"/><path d="M222.1 344.42a8 8 0 0 1 8-8h47.85a8 8 0 0 1 8 8v44a8 8 0 0 1-8 8H230.1a8 8 0 0 1-8-8z" stroke="#000" stroke-opacity="0" fill="#fff" fill-opacity="0"/><use xlink:href="#F" transform="matrix(1,0,0,1,227.10753239925793,341.41666666666663) translate(13.5 30.025)"/><path d="M232.82 436.84c0 13.9-11.6 25.17-25.9 25.17-14.33 0-25.93-11.26-25.93-25.16s11.6-25.18 25.9-25.18c14.32 0 25.92 11.27 25.92 25.18z" stroke="#000" stroke-width="4" fill="#fff"/><use xlink:href="#G" transform="matrix(1,0,0,1,180.98620801486805,411.66428027416544) translate(19.53 30.3375)"/><path d="M206.9 381.5v27.16" stroke="#3a414a" stroke-width="2" fill="none"/><path d="M207.88 381.53h-1.95v-1.03h1.95zM207.88 409.75l-.9-.1-.96.03h-.1v-1.04h1.96z" stroke="#3a414a" stroke-width=".05" fill="#3a414a"/><path d="M211.74 627.1v-81.05a.44.44 0 0 0-.44-.44.44.44 0 0 1-.44-.43V464.1" stroke="#3a414a" fill="none"/><path d="M212.22 627.6h-.95v-.5h.95zM211.34 464.13h-.95v-.46l.94-.12z" stroke="#3a414a" stroke-width=".05" fill="#3a414a"/><path d="M-40 619v-91.54a12 12 0 0 1 12-12h238.36" stroke="#3a414a" fill="none"/><path d="M-39.52 619.5h-.95v-.5h.95z" stroke="#3a414a" stroke-width=".05" fill="#3a414a"/><path d="M210.35 515.46h.5" stroke="#3a414a" fill="none"/><path d="M200.46 381.5v27.9" stroke="#3a414a" stroke-width="2" fill="none"/><path d="M201.43 381.53h-1.95v-1.03h1.95zM201.43 410.25l-.8.1-1.15.37v-1.35h1.95z" stroke="#3a414a" stroke-width=".05" fill="#3a414a"/><path d="M463.68 628.58V528.32a12 12 0 0 0-12-12H211.36" stroke="#3a414a" fill="none"/><path d="M464.15 629.08h-.95v-.5h.95z" stroke="#3a414a" stroke-width=".05" fill="#3a414a"/><path d="M211.38 516.32h-.52" stroke="#3a414a" fill="none"/><path d="M-491.15 809.84a7.67 7.67 0 0 0 10.7 1.85l92.6-65.4a3.84 3.84 0 0 1 5.34.93 1.47 1.47 0 0 0 2.65-.68l1.04-8.75a8.9 8.9 0 0 0-6.87-9.7l-8.6-1.96a1.47 1.47 0 0 0-1.52 2.28 3.84 3.84 0 0 1-.92 5.35l-92.58 65.38a7.67 7.67 0 0 0-1.85 10.7z" fill="#cfe4ff"/><path d="M-459.88 797.16l20.58-14.53m10.3-7.27l20.56-14.53m10.3-7.26l10.28-7.26.52-.3.55-.22.6-.14.6-.04.6.06.6.15.54.25.5.32.46.4.38.46.24.26.3.2.33.1.35.05.35-.05.33-.12.3-.2.22-.27.17-.3.08-.35 1.04-8.75.05-1.3-.14-1.3-.3-1.26-.5-1.2-.68-1.1-.83-1.02-.97-.87-1.08-.73-1.18-.55-1.24-.38-8.6-1.96-.35-.04-.35.05-.33.13-.28.2-.23.27-.18.32-.08.34v.37l.1.34.17.32.3.52.24.56.13.6.04.6-.05.58-.15.6-.23.54-.33.5-.4.46-.46.4-10.28 7.25m-10.3 7.27l-20.57 14.53m-10.28 7.26l-20.58 14.52m-10.3 7.26l-10.27 7.27-.93.77-.8.9-.64 1.02-.47 1.1-.3 1.18-.1 1.2.07 1.2.26 1.17.44 1.1.6 1.04.78.93.9.8 1.03.64 1.1.48 1.17.3 1.2.1 1.2-.07 1.17-.25 1.1-.45 1.05-.6 10.3-7.28" stroke="#3a414a" stroke-width="3" fill="none"/><path d="M-271.92 708a8 8 0 0 1 8-8h47.84a8 8 0 0 1 8 8v44a8 8 0 0 1-8 8h-47.84a8 8 0 0 1-8-8z" stroke="#000" stroke-opacity="0" fill="#fff" fill-opacity="0"/><use xlink:href="#H" transform="matrix(1,0,0,1,-266.92055003510615,705) translate(-2.25 28.6)"/><path d="M-254.77 760a7.38 7.38 0 0 0-7.38 7.38v49.64a3.7 3.7 0 0 1-3.7 3.7 1.42 1.42 0 0 0-.94 2.46l6.08 5.47a8.9 8.9 0 0 0 11.9 0l6.08-5.47a1.42 1.42 0 0 0-.95-2.47 3.7 3.7 0 0 1-3.68-3.68v-49.64a7.38 7.38 0 0 0-7.4-7.38z" fill="#cfe4ff"/><path d="M-262.15 800.47v16.55l-.05.57-.14.56-.22.53-.3.5-.38.43-.44.37-.5.3-.53.23-.57.13-.58.05-.33.05-.32.12-.28.2-.23.25-.17.3-.08.33v.34l.08.32.15.3.23.26 6.08 5.47 1.03.8 1.15.63 1.2.47 1.28.28 1.3.1 1.3-.1 1.27-.28 1.2-.47 1.15-.63 1.03-.8 6.08-5.47.22-.26.16-.3.08-.33v-.35l-.1-.33-.15-.3-.23-.26-.28-.2-.3-.1-.35-.05-.57-.04-.56-.13-.54-.22-.5-.3-.43-.37-.38-.44-.3-.5-.22-.54-.14-.57-.04-.58v-16.55m0-16.54v-16.55l-.1-1.15-.27-1.13-.44-1.07-.6-1-.75-.87-.88-.75-1-.6-1.06-.44-1.1-.27-1.17-.1-1.15.1-1.13.26-1.07.45-1 .6-.87.76-.74.88-.6 1-.45 1.06-.26 1.13-.1 1.15v16.55" stroke="#3a414a" stroke-width="3" fill="none"/><path d="M-170 950a7.38 7.38 0 0 0 7.4 7.4H-37a3.7 3.7 0 0 1 3.7 3.68 1.42 1.42 0 0 0 2.46.95l5.47-6.08a8.9 8.9 0 0 0 0-11.9l-5.47-6.07a1.42 1.42 0 0 0-2.47.94 3.7 3.7 0 0 1-3.68 3.7H-162.6A7.38 7.38 0 0 0-170 950z" fill="#cfe4ff"/><path d="M-134.7 957.4h27.92m13.96 0h27.92m13.96 0h13.96l.57.03.56.14.53.22.5.3.43.37.37.44.3.5.23.54.13.56.05.58.05.34.12.3.2.3.25.22.3.16.33.08h.34l.32-.07.3-.15.26-.22 5.47-6.08.8-1.03.64-1.14.45-1.2.3-1.28.08-1.3-.1-1.3-.28-1.27-.46-1.2-.65-1.15-.8-1.03-5.47-6.07-.26-.23-.3-.15-.33-.08h-.35l-.33.08-.3.16-.26.23-.2.27-.1.32-.05.32-.04.58-.13.56-.22.54-.3.5-.37.43-.44.38-.5.3-.54.23-.57.14-.58.05h-13.96m-13.96 0h-27.92m-13.96 0h-27.92m-13.96 0h-13.95l-1.17.1-1.13.26-1.07.44-1 .6-.87.76-.75.88-.6 1-.44 1.06-.27 1.13-.1 1.15.1 1.16.26 1.12.45 1.07.6 1 .76.87.88.75 1 .6 1.06.45 1.13.27 1.16.1h13.94" stroke="#3a414a" stroke-width="3" fill="none"/><path d="M-262.4 968a8 8 0 0 1 8-8h47.85a8 8 0 0 1 8 8v44a8 8 0 0 1-8 8h-47.84a8 8 0 0 1-8-8z" stroke="#000" stroke-opacity="0" fill="#fff" fill-opacity="0"/><use xlink:href="#I" transform="matrix(1,0,0,1,-257.392593631283,965) translate(-2.25 28.6)"/><path d="M118.45 943.23a8 8 0 0 1 8-8h47.84a8 8 0 0 1 8 8v44a8 8 0 0 1-8 8h-47.85a8 8 0 0 1-8-8z" stroke="#000" stroke-opacity="0" fill="#fff" fill-opacity="0"/><use xlink:href="#I" transform="matrix(1,0,0,1,123.45241971388378,940.2303930166192) translate(-2.25 28.6)"/><path d="M-460 792a8 8 0 0 1 8-8h47.84a8 8 0 0 1 8 8v44a8 8 0 0 1-8 8H-452a8 8 0 0 1-8-8z" stroke="#000" stroke-opacity="0" fill="#fff" fill-opacity="0"/><use xlink:href="#J" transform="matrix(1,0,0,1,-455,788.987512436243) translate(-2.25 28.6)"/><path d="M-247.68 772.65a8 8 0 0 1 8-8h47.84a8 8 0 0 1 8 8v44a8 8 0 0 1-8 8h-47.84a8 8 0 0 1-8-8z" stroke="#000" stroke-opacity="0" fill="#fff" fill-opacity="0"/><use xlink:href="#K" transform="matrix(1,0,0,1,-242.68220014042458,769.6523176826383) translate(2.25 30.025)"/><path d="M-131.92 968a8 8 0 0 1 8-8h47.84a8 8 0 0 1 8 8v44a8 8 0 0 1-8 8h-47.84a8 8 0 0 1-8-8z" stroke="#000" stroke-opacity="0" fill="#fff" fill-opacity="0"/><use xlink:href="#K" transform="matrix(1,0,0,1,-126.92055003510615,965) translate(2.25 30.025)"/><path d="M-300 560a7.67 7.67 0 0 0 7.67-7.67V417.65a3.84 3.84 0 0 1 3.84-3.84 1.47 1.47 0 0 0 1-2.55l-6.55-5.9a8.9 8.9 0 0 0-11.9 0l-6.55 5.9a1.47 1.47 0 0 0 1 2.56 3.84 3.84 0 0 1 3.83 3.85v134.68A7.67 7.67 0 0 0-300 560z" fill="#cfe4ff"/><path d="M-292.33 522.4v-29.93m0-14.96V447.6m0-14.97v-14.95l.05-.6.14-.6.23-.54.3-.5.4-.46.46-.4.5-.3.57-.24.58-.14.6-.05.36-.03.33-.13.28-.2.24-.26.17-.3.07-.36v-.35l-.08-.34-.17-.32-.23-.25-6.55-5.9-1.03-.8-1.14-.63-1.2-.47-1.28-.28-1.3-.1-1.3.1-1.27.28-1.2.47-1.15.63-1.03.8-6.55 5.9-.23.26-.16.33-.07.34v.35l.1.35.15.3.24.27.3.2.32.13.35.04.6.06.58.14.55.23.5.32.47.4.4.44.3.5.24.56.14.6.05.6v14.95m0 14.98v29.93m0 14.97v29.93m0 14.96v14.97l.1 1.2.27 1.17.46 1.1.63 1.04.77.9.92.8 1.02.62 1.1.46 1.18.28 1.2.1 1.2-.1 1.17-.28 1.1-.46 1.04-.63.93-.78.78-.9.64-1.04.46-1.1.28-1.17.1-1.2v-14.97" stroke="#3a414a" stroke-width="3" fill="none"/><path d="M-304.65 310a7.67 7.67 0 0 0 7.67-7.67v-94.68a3.84 3.84 0 0 1 3.84-3.84 1.47 1.47 0 0 0 .98-2.55l-6.55-5.9a8.9 8.9 0 0 0-11.9 0l-6.55 5.9a1.47 1.47 0 0 0 1 2.56 3.84 3.84 0 0 1 3.82 3.85v94.68a7.67 7.67 0 0 0 7.68 7.67z" fill="#cfe4ff"/><path d="M-296.98 270.77V239.2m0-15.77v-15.78l.05-.6.14-.6.24-.54.3-.5.4-.46.46-.4.52-.3.55-.24.6-.14.6-.05.34-.03.34-.12.3-.2.23-.27.16-.3.1-.35v-.36l-.1-.34-.15-.32-.24-.25-6.55-5.9-1.03-.8-1.14-.63-1.2-.47-1.28-.28-1.3-.1-1.3.1-1.27.28-1.22.47-1.13.63-1.03.8-6.55 5.9-.23.26-.16.33-.1.34.02.36.08.34.17.3.23.27.3.2.33.13.34.04.6.06.58.14.56.23.5.32.47.4.4.44.3.5.24.56.13.6.04.6v15.77m0 15.78v31.57m0 15.78v15.78l.1 1.2.28 1.17.46 1.1.64 1.04.78.9.92.8 1.02.62 1.12.46 1.17.3 1.2.08 1.2-.1 1.17-.28 1.1-.46 1.04-.63.9-.78.8-.9.62-1.04.47-1.1.28-1.17.1-1.2v-15.78" stroke="#3a414a" stroke-width="3" fill="none"/><path d="M-383.84 451.5a8 8 0 0 1 8-8H-328a8 8 0 0 1 8 8v44a8 8 0 0 1-8 8h-47.84a8 8 0 0 1-8-8z" stroke="#000" stroke-opacity="0" fill="#fff" fill-opacity="0"/><use xlink:href="#L" transform="matrix(1,0,0,1,-378.84110007021224,448.4928446792893) translate(2.25 30.025)"/><path d="M-183.84 414.84a8 8 0 0 1 8-8H-128a8 8 0 0 1 8 8v44a8 8 0 0 1-8 8h-47.84a8 8 0 0 1-8-8z" stroke="#000" stroke-opacity="0" fill="#fff" fill-opacity="0"/><use xlink:href="#H" transform="matrix(1,0,0,1,-178.8411000702123,411.8361002749667) translate(-2.25 28.6)"/><path d="M-225.8 143.4a8 8 0 0 1 8-8h47.83a8 8 0 0 1 8 8v44a8 8 0 0 1-8 8h-47.84a8 8 0 0 1-8-8z" stroke="#000" stroke-opacity="0" fill="#fff" fill-opacity="0"/><use xlink:href="#M" transform="matrix(1,0,0,1,-220.8084683506003,140.40219356249446) translate(-2.25 28.6)"/><path d="M-383.84 228a8 8 0 0 1 8-8H-328a8 8 0 0 1 8 8v44a8 8 0 0 1-8 8h-47.84a8 8 0 0 1-8-8z" stroke="#000" stroke-opacity="0" fill="#fff" fill-opacity="0"/><use xlink:href="#N" transform="matrix(1,0,0,1,-378.8411000702123,225) translate(2.25 30.025)"/><path d="M-100-220a7.67 7.67 0 0 0 7.67 7.67h244.68a3.84 3.84 0 0 1 3.84 3.84 1.47 1.47 0 0 0 2.55 1l5.9-6.55a8.9 8.9 0 0 0 0-11.9l-5.9-6.55a1.47 1.47 0 0 0-2.56 1 3.84 3.84 0 0 1-3.85 3.83H-92.33A7.67 7.67 0 0 0-100-220z" fill="#cfe4ff"/><path d="M-59.7-212.33h32.62m16.3 0h32.64m16.3 0H70.8m16.3 0h32.63m16.3 0h16.32l.6.05.6.14.54.23.5.3.46.4.4.46.3.5.24.57.14.58.05.6.03.36.13.33.2.28.26.24.3.17.36.07h.35l.34-.08.32-.17.25-.23 5.9-6.55.8-1.03.64-1.14.45-1.2.3-1.28.08-1.3-.1-1.3-.28-1.27-.46-1.2-.65-1.15-.8-1.03-5.9-6.55-.26-.23-.33-.16-.34-.07h-.36l-.34.1-.3.15-.27.24-.2.3-.13.32-.04.35-.06.6-.14.58-.23.55-.32.5-.4.47-.44.4-.5.3-.56.24-.6.14-.6.05h-16.3m-16.3 0H87.1m-16.3 0H38.16m-16.3 0h-32.64m-16.3 0H-59.7m-16.3 0h-16.33l-1.2.1-1.17.27-1.1.46-1.04.63-.9.77-.8.92-.62 1.02-.46 1.1-.28 1.18-.1 1.2.1 1.2.28 1.17.46 1.1.63 1.04.78.93.9.78 1.04.64 1.1.46 1.17.28 1.2.1H-76" stroke="#3a414a" stroke-width="3" fill="none"/><path d="M-12.42-212a8 8 0 0 1 8-8h47.84a8 8 0 0 1 8 8v44a8 8 0 0 1-8 8H-4.42a8 8 0 0 1-8-8z" stroke="#000" stroke-opacity="0" fill-opacity="0"/><use xlink:href="#O" transform="matrix(1,0,0,1,-7.420500035106272,-215) translate(2.25 30.025)"/><path d="M580 344.42a8 8 0 0 1 8-8h47.84a8 8 0 0 1 8 8v44a8 8 0 0 1-8 8H588a8 8 0 0 1-8-8z" stroke="#000" stroke-opacity="0" fill="#fff" fill-opacity="0"/><use xlink:href="#P" transform="matrix(1,0,0,1,585,341.41666666666663) translate(-2.25 28.6)"/><path d="M300-232a8 8 0 0 1 8-8h47.84a8 8 0 0 1 8 8v44a8 8 0 0 1-8 8H308a8 8 0 0 1-8-8z" stroke="#000" stroke-opacity="0" fill="#fff" fill-opacity="0"/><use xlink:href="#Q" transform="matrix(1,0,0,1,305,-235) translate(-9 28.6)"/><path d="M40 143.4a8 8 0 0 1 8-8h47.84a8 8 0 0 1 8 8v44a8 8 0 0 1-8 8H48a8 8 0 0 1-8-8z" stroke="#000" stroke-opacity="0" fill="#fff" fill-opacity="0"/><use xlink:href="#R" transform="matrix(1,0,0,1,45,140.40219356249446) translate(-2.25 28.6)"/><path d="M324.37-96.05c0 13.9-11.6 25.17-25.92 25.17-14.3 0-25.92-11.27-25.92-25.17 0-13.9 11.6-25.17 25.92-25.17 14.32 0 25.92 11.26 25.92 25.17z" stroke="#000" stroke-width="4" fill="#fff"/><use xlink:href="#S" transform="matrix(1,0,0,1,272.53378830098427,-121.22535763581504) translate(19.53 30.3375)"/><path d="M298.45-187.1v62.87" stroke="#3a414a" stroke-width="2" fill="none"/><path d="M299.43-187.07h-1.95v-1.03h1.95zM299.43-123.14l-.9-.1-.96.03h-.1v-1.05h1.96z" stroke="#3a414a" stroke-width=".05" fill="#3a414a"/><path d="M581.84 34.4V-84.05a12 12 0 0 0-12-12H326.87" stroke="#3a414a" fill="none"/><path d="M582.3 34.9h-.94v-.5h.95zM326.88-95.58h-.55l.04-.4v-.55h.5z" stroke="#3a414a" stroke-width=".05" fill="#3a414a"/><path d="M38.45 18.4V-84.05a12 12 0 0 1 12-12h219.58" stroke="#3a414a" fill="none"/><path d="M38.93 18.9h-.95v-.5h.95zM270.53-96.14v.56h-.5v-.95h.54z" stroke="#3a414a" stroke-width=".05" fill="#3a414a"/><path d="M291.82 18.4v-87.63" stroke="#3a414a" fill="none"/><path d="M292.3 18.9h-.95v-.5h.95zM292.3-69.6v.38h-.95v-.65z" stroke="#3a414a" stroke-width=".05" fill="#3a414a"/><path d="M-21.06-59.32a8 8 0 0 1 8-8h47.84a8 8 0 0 1 8 8v44a8 8 0 0 1-8 8h-47.84a8 8 0 0 1-8-8z" stroke="#000" stroke-opacity="0" fill="#fff" fill-opacity="0"/><use xlink:href="#T" transform="matrix(1,0,0,1,-16.064041540544164,-62.31886689854514) translate(10.524999999999999 30.025)"/><path d="M307.98 143.4a8 8 0 0 1 8-8h47.84a8 8 0 0 1 8 8v44a8 8 0 0 1-8 8H316a8 8 0 0 1-8-8z" stroke="#000" stroke-opacity="0" fill="#fff" fill-opacity="0"/><use xlink:href="#U" transform="matrix(1,0,0,1,312.9839121448403,140.40219356249446) translate(-2.25 28.6)"/><path d="M598 162.2a8 8 0 0 1 8-8h47.84a8 8 0 0 1 8 8v44a8 8 0 0 1-8 8H606a8 8 0 0 1-8-8z" stroke="#000" stroke-opacity="0" fill="#fff" fill-opacity="0"/><use xlink:href="#U" transform="matrix(1,0,0,1,602.9961627555866,159.20833333333337) translate(-2.25 28.6)"/><path d="M516.16-58.9a8 8 0 0 1 8-8H572a8 8 0 0 1 8 8v44a8 8 0 0 1-8 8h-47.84a8 8 0 0 1-8-8z" stroke="#000" stroke-opacity="0" fill="#fff" fill-opacity="0"/><use xlink:href="#V" transform="matrix(1,0,0,1,521.1588999297877,-61.90403711320093) translate(10.524999999999999 30.025)"/><path d="M218.08-58.34a8 8 0 0 1 8-8h47.84a8 8 0 0 1 8 8v44a8 8 0 0 1-8 8h-47.84a8 8 0 0 1-8-8z" stroke="#000" stroke-opacity="0" fill="#fff" fill-opacity="0"/><use xlink:href="#W" transform="matrix(1,0,0,1,223.07944996489385,-61.345198543486234) translate(10.524999999999999 30.025)"/><path d="M71.92-66.35a7.38 7.38 0 0 0-7.38 7.4v49.62a3.7 3.7 0 0 1-3.7 3.7 1.42 1.42 0 0 0-.94 2.46l6.07 5.47a8.9 8.9 0 0 0 11.9 0l6.08-5.47A1.42 1.42 0 0 0 83-5.64a3.7 3.7 0 0 1-3.7-3.7v-49.62a7.38 7.38 0 0 0-7.38-7.4z" fill="#cfe4ff"/><path d="M64.54-25.87v16.54l-.05.58-.15.56-.22.55-.3.5-.38.43-.44.38-.48.3-.54.22-.56.14-.58.04-.33.04-.3.12-.3.2-.22.25-.16.3-.08.33v.34l.08.33.15.3.23.26 6.07 5.47 1.03.8 1.14.64 1.2.47 1.28.3 1.3.1 1.3-.1 1.27-.3 1.2-.46 1.14-.64 1.03-.8 6.08-5.47.22-.25.16-.3.07-.34v-.34l-.08-.33-.16-.3-.23-.25-.28-.2-.3-.12-.35-.04-.58-.04-.56-.14-.54-.22-.5-.3-.43-.38-.4-.44-.3-.5-.2-.53-.15-.55-.04-.58v-16.54m0-16.55v-16.54l-.1-1.16-.26-1.12-.44-1.07-.6-1-.76-.88-.88-.75-1-.6L74.2-66l-1.12-.27-1.16-.1-1.15.1-1.13.27-1.07.44-1 .6-.87.76-.75.88-.6 1-.45 1.06-.27 1.12-.1 1.16v16.54" stroke="#3a414a" stroke-width="3" fill="none"/><path d="M350.07-73.34a7.38 7.38 0 0 0-7.4 7.38v49.63a3.7 3.7 0 0 1-3.68 3.7 1.42 1.42 0 0 0-.96 2.46l6.08 5.47a8.9 8.9 0 0 0 11.9 0l6.07-5.47a1.42 1.42 0 0 0-.96-2.47 3.7 3.7 0 0 1-3.7-3.7v-49.62a7.38 7.38 0 0 0-7.37-7.38z" fill="#cfe4ff"/><path d="M342.68-32.87v16.54l-.04.58-.14.56-.22.55-.3.5-.38.43-.44.38-.5.3-.53.22-.56.14-.58.04-.35.04-.32.12-.28.2-.22.25-.16.3-.1.33v.34l.1.33.15.3.22.26 6.08 5.47 1.03.8 1.13.64 1.22.47 1.27.3 1.3.1 1.3-.1 1.27-.3 1.2-.46L355-3.9l1.03-.8 6.1-5.47.22-.25.15-.3.08-.34v-.34l-.08-.33-.16-.3-.22-.25-.28-.2-.32-.12-.34-.04-.57-.04-.57-.14-.53-.22-.5-.3-.44-.38-.37-.44-.3-.5-.23-.53-.13-.55-.05-.58v-16.54m0-16.55v-16.54l-.1-1.16-.26-1.12-.45-1.07-.6-1-.76-.88-.9-.75-.98-.6-1.07-.45-1.13-.27-1.15-.1-1.16.1-1.1.27-1.1.44-.97.6-.88.76-.76.88-.6 1-.46 1.06-.27 1.12-.1 1.16v16.54" stroke="#3a414a" stroke-width="3" fill="none"/><path d="M616.73-66.9a7.38 7.38 0 0 0-7.38 7.38V-9.9a3.7 3.7 0 0 1-3.7 3.7 1.42 1.42 0 0 0-.94 2.47l6.1 5.47a8.9 8.9 0 0 0 11.88 0l6.08-5.47a1.42 1.42 0 0 0-.95-2.47 3.7 3.7 0 0 1-3.68-3.7V-59.5a7.38 7.38 0 0 0-7.4-7.38z" fill="#cfe4ff"/><path d="M609.35-26.43V-9.9l-.05.6-.13.55-.23.54-.3.48-.37.44-.45.38-.5.3-.52.22-.57.14-.58.04-.33.04-.32.12-.28.2-.23.25-.17.3-.08.34v.34l.08.33.15.32.23.25 6.1 5.47 1 .8 1.15.64 1.2.47 1.28.28 1.3.1 1.3-.1 1.27-.28 1.22-.47 1.13-.64 1.03-.8 6.08-5.47.22-.25.16-.3.08-.34v-.34l-.1-.33-.15-.3-.22-.24-.28-.2-.32-.12-.34-.04-.57-.04-.56-.14-.54-.22-.5-.3-.43-.38-.38-.44-.3-.5-.22-.53-.14-.56-.04-.6v-16.53m0-16.55v-16.54l-.1-1.15-.27-1.13-.44-1.07-.6-1-.75-.87-.88-.75-1-.6-1.06-.44-1.1-.27-1.17-.1-1.15.1-1.13.26-1.07.44-1 .6-.87.76-.74.88-.6 1-.45 1.06-.26 1.13-.1 1.15v16.54" stroke="#3a414a" stroke-width="3" fill="none"/><path d="M86.7-58.34a8 8 0 0 1 8-8h47.83a8 8 0 0 1 8 8v44a8 8 0 0 1-8 8H94.7a8 8 0 0 1-8-8z" stroke="#000" stroke-opacity="0" fill="#fff" fill-opacity="0"/><use xlink:href="#X" transform="matrix(1,0,0,1,91.69015701848674,-61.345198543486234) translate(2.25 30.025)"/><path d="M640-59.32a8 8 0 0 1 8-8h47.84a8 8 0 0 1 8 8v44a8 8 0 0 1-8 8H648a8 8 0 0 1-8-8z" stroke="#000" stroke-opacity="0" fill="#fff" fill-opacity="0"/><use xlink:href="#Y" transform="matrix(1,0,0,1,645,-62.31886689854514) translate(2.25 30.025)"/><path d="M367.12-58.34a8 8 0 0 1 8-8h47.84a8 8 0 0 1 8 8v44a8 8 0 0 1-8 8h-47.84a8 8 0 0 1-8-8z" stroke="#000" stroke-opacity="0" fill="#fff" fill-opacity="0"/><use xlink:href="#Z" transform="matrix(1,0,0,1,372.11917494734075,-61.345198543486234) translate(2.25 30.025)"/><path d="M-711.15 428.94a7.67 7.67 0 0 0 10.7 1.84l92.6-65.38a3.84 3.84 0 0 1 5.34.92 1.47 1.47 0 0 0 2.65-.67l1.04-8.75a8.9 8.9 0 0 0-6.87-9.72l-8.6-1.95a1.47 1.47 0 0 0-1.52 2.3 3.84 3.84 0 0 1-.92 5.34l-92.58 65.38a7.67 7.67 0 0 0-1.85 10.7z" fill="#cfe4ff"/><path d="M-679.88 416.25l20.58-14.52m10.3-7.27l20.56-14.53m10.3-7.26l10.28-7.27.52-.3.55-.23.6-.13.6-.04.6.06.6.14.54.24.5.32.46.4.38.46.24.27.3.18.33.13.35.05.35-.05.33-.13.3-.2.22-.26.17-.3.08-.35 1.04-8.75.05-1.3-.14-1.3-.3-1.26-.5-1.2-.68-1.12-.83-1-.97-.87-1.08-.73-1.18-.56-1.24-.38-8.6-1.95-.35-.03-.35.05-.33.13-.28.2-.23.27-.18.32-.07.34v.36l.1.35.16.32.3.52.24.56.13.58.04.6-.05.6-.15.6-.23.54-.33.5-.4.46-.46.4-10.28 7.25m-10.3 7.27l-20.57 14.52m-10.28 7.27l-20.58 14.52m-10.3 7.26l-10.27 7.27-.93.77-.8.9-.64 1.02-.47 1.1-.3 1.17-.1 1.2.07 1.2.26 1.2.44 1.1.6 1.04.78.93.9.8 1.03.64 1.1.48 1.17.3 1.2.1 1.2-.07 1.17-.26 1.1-.44 1.05-.62 10.3-7.26" stroke="#3a414a" stroke-width="3" fill="none"/><path d="M-700 419.66a8 8 0 0 1 8-8h47.84a8 8 0 0 1 8 8v44a8 8 0 0 1-8 8H-692a8 8 0 0 1-8-8z" stroke="#000" stroke-opacity="0" fill="#fff" fill-opacity="0"/><use xlink:href="#aa" transform="matrix(1,0,0,1,-695,416.66428027416544) translate(13.5 30.025)"/><path d="M-486.43 294.42a8 8 0 0 1 8-8h47.84a8 8 0 0 1 8 8v44a8 8 0 0 1-8 8h-47.83a8 8 0 0 1-8-8z" stroke="#000" stroke-opacity="0" fill="#fff" fill-opacity="0"/><use xlink:href="#ab" transform="matrix(1,0,0,1,-481.42973133896817,291.41666666666663) translate(-2.25 28.6)"/><path d="M-482.17 6.04a8 8 0 0 1 8-8h47.84a8 8 0 0 1 8 8v44a8 8 0 0 1-8 8h-47.84a8 8 0 0 1-8-8z" stroke="#000" stroke-opacity="0" fill="#fff" fill-opacity="0"/><use xlink:href="#ac" transform="matrix(1,0,0,1,-477.1721616044851,3.0393928363804434) translate(18 30.025)"/><path d="M-483.84 675.32a8 8 0 0 1 8-8H-428a8 8 0 0 1 8 8v44a8 8 0 0 1-8 8h-47.84a8 8 0 0 1-8-8z" stroke="#000" stroke-opacity="0" fill="#fff" fill-opacity="0"/><g><use xlink:href="#ad" transform="matrix(1,0,0,1,-478.8411000702123,672.3188668985451) translate(-2.25 28.6)"/></g><g><path d="M774.77 425.72a7.67 7.67 0 0 0-4.33-9.95L686.7 382.8a3.84 3.84 0 0 1-2.17-4.98 1.47 1.47 0 0 0-2.03-1.85l-7.88 3.93a8.9 8.9 0 0 0-4.36 11.07l3.1 8.25a1.47 1.47 0 0 0 2.74.02 3.84 3.84 0 0 1 4.97-2.16l83.75 32.97a7.67 7.67 0 0 0 9.95-4.33z" fill="#cfe4ff"/><path d="M742.52 404.78l-27.9-11m-13.97-5.5l-13.96-5.48-.55-.27-.5-.34-.42-.43-.37-.48-.28-.54-.2-.57-.1-.6v-.6l.07-.6.18-.58.1-.34v-.35l-.1-.35-.15-.3-.23-.28-.28-.2-.33-.14-.35-.05-.37.05-.33.12-7.88 3.93-1.12.67-1 .82-.9.95-.72 1.07-.56 1.18-.4 1.24-.2 1.3v1.3l.18 1.28.36 1.25 3.1 8.25.15.3.24.28.3.2.32.13.35.05.36-.04.34-.12.3-.2.23-.26.17-.32.26-.54.34-.5.42-.42.48-.37.54-.27.56-.2.6-.1h.6l.6.07.57.18 13.96 5.5m13.96 5.5l27.9 10.98m13.96 5.5l13.96 5.5 1.15.34 1.2.17 1.2-.02 1.18-.2 1.14-.4 1.05-.57.97-.73.83-.86.7-1 .52-1.08.35-1.15.17-1.2-.03-1.2-.2-1.18-.4-1.15-.57-1.07-.72-.96-.87-.83-.98-.7-1.08-.53-13.96-5.5" stroke="#3a414a" stroke-width="3" fill="none"/></g><path d="M794.73 410.3a8 8 0 0 1 8-8h47.84a8 8 0 0 1 8 8v44a8 8 0 0 1-8 8h-47.84a8 8 0 0 1-8-8z" stroke="#000" stroke-opacity="0" fill="#fff" fill-opacity="0"/><g><use xlink:href="#ae" transform="matrix(1,0,0,1,799.7326598059872,407.29095802365) translate(2.25 30.025)"/></g><path d="M460 340a7.67 7.67 0 0 0-7.67-7.67H327.65a3.84 3.84 0 0 1-3.84-3.84 1.47 1.47 0 0 0-2.55-1l-5.9 6.55a8.9 8.9 0 0 0 0 11.9l5.9 6.55a1.47 1.47 0 0 0 2.56-1 3.84 3.84 0 0 1 3.85-3.83h124.68A7.67 7.67 0 0 0 460 340z" fill="#cfe4ff"/><path d="M424.62 332.33h-27.7m-13.86 0h-27.7m-13.86 0h-13.85l-.6-.05-.6-.14-.54-.23-.5-.3-.46-.4-.4-.45-.3-.52-.24-.56-.14-.58-.05-.6-.03-.36-.13-.33-.2-.28-.26-.24-.3-.16-.36-.1h-.35l-.34.1-.32.15-.25.23-5.9 6.55-.8 1.03-.63 1.14-.47 1.2-.28 1.28-.1 1.3.1 1.3.28 1.27.47 1.2.63 1.15.8 1.03 5.9 6.55.26.23.33.16.34.07h.35l.35-.1.3-.15.27-.24.2-.3.13-.32.04-.35.06-.6.14-.57.23-.56.32-.5.4-.47.44-.4.5-.3.56-.24.6-.14.6-.05h13.84m13.86 0h27.7m13.85 0h27.72m13.85 0h13.86l1.2-.1 1.17-.27 1.1-.46 1.04-.63.9-.77.8-.92.62-1.02.46-1.1.28-1.18.1-1.2-.1-1.2-.28-1.17-.46-1.1-.63-1.04-.78-.93-.9-.78-1.04-.64-1.1-.46-1.17-.28-1.2-.1h-13.86" stroke="#3a414a" stroke-width="3" fill="none"/><path d="M355.85 345.04a8 8 0 0 1 8-8h47.84a8 8 0 0 1 8 8v44a8 8 0 0 1-8 8h-47.85a8 8 0 0 1-8-8z" stroke="#000" stroke-opacity="0" fill="#fff" fill-opacity="0"/><g><use xlink:href="#ae" transform="matrix(1,0,0,1,360.850378059318,342.04313861957235) translate(2.25 30.025)"/></g><path d="M-108.42 534.03a8 8 0 0 1 8-8h47.84a8 8 0 0 1 8 8v44a8 8 0 0 1-8 8h-47.84a8 8 0 0 1-8-8z" stroke="#000" stroke-opacity="0" fill="#fff" fill-opacity="0"/><g><use xlink:href="#T" transform="matrix(1,0,0,1,-103.42448837101404,531.0263316449411) translate(10.524999999999999 30.025)"/></g><path d="M400 534.44a8 8 0 0 1 8-8h47.84a8 8 0 0 1 8 8v44a8 8 0 0 1-8 8H408a8 8 0 0 1-8-8z" stroke="#000" stroke-opacity="0" fill="#fff" fill-opacity="0"/><g><use xlink:href="#af" transform="matrix(1,0,0,1,405,531.4411614302853) translate(10.524999999999999 30.025)"/></g><path d="M160 535a8 8 0 0 1 8-8h47.84a8 8 0 0 1 8 8v44a8 8 0 0 1-8 8H168a8 8 0 0 1-8-8z" stroke="#000" stroke-opacity="0" fill="#fff" fill-opacity="0"/><g><use xlink:href="#ag" transform="matrix(1,0,0,1,165,532) translate(10.524999999999999 30.025)"/></g><g><path d="M-15.44 527a7.38 7.38 0 0 0-7.38 7.4V584a3.7 3.7 0 0 1-3.7 3.7 1.42 1.42 0 0 0-.94 2.46l6.07 5.47a8.9 8.9 0 0 0 11.9 0l6.1-5.47a1.42 1.42 0 0 0-.96-2.47 3.7 3.7 0 0 1-3.7-3.68V534.4a7.38 7.38 0 0 0-7.38-7.4z" fill="#cfe4ff"/><path d="M-22.82 567.47v16.55l-.05.57-.14.56-.23.53-.3.5-.38.43-.45.37-.5.3-.53.23-.56.13-.58.05-.33.05-.32.12-.28.2-.23.25-.16.3-.08.33v.34l.08.32.15.3.24.26 6.07 5.47 1.04.8 1.14.64 1.2.45 1.28.3 1.3.08 1.3-.1 1.27-.28 1.2-.47 1.15-.63 1.03-.8 6.1-5.47.2-.26.17-.3.08-.33v-.35l-.1-.33-.15-.3-.23-.26-.28-.2-.32-.1-.34-.05-.58-.04-.56-.13-.54-.22-.5-.3-.43-.37-.38-.44-.3-.5-.22-.54-.14-.57-.05-.58v-16.55m0-16.54V534.4l-.1-1.17-.27-1.13-.44-1.07-.6-1-.76-.87-.88-.75-1-.6-1.06-.44-1.12-.27-1.16-.1-1.15.1-1.12.26-1.07.45-.98.6-.88.76-.75.88-.62 1-.44 1.06-.27 1.13-.1 1.16v16.53" stroke="#3a414a" stroke-width="3" fill="none"/></g><g><path d="M254.76 520a7.38 7.38 0 0 0-7.1 7.65l1.8 49.65a3.7 3.7 0 0 1-3.55 3.82 1.42 1.42 0 0 0-.85 2.5l6.28 5.25a8.9 8.9 0 0 0 11.88-.44l5.9-5.68a1.42 1.42 0 0 0-1.05-2.44 3.7 3.7 0 0 1-3.82-3.54l-1.82-49.65a7.38 7.38 0 0 0-7.64-7.1z" fill="#cfe4ff"/><path d="M248.86 560.75l.6 16.55-.02.58-.1.56-.2.55-.3.5-.36.44-.43.4-.48.32-.53.24-.55.15-.6.07-.33.05-.3.14-.28.2-.23.27-.15.3-.07.34v.35l.1.33.17.3.23.24 6.28 5.25 1.06.76 1.14.6 1.23.42 1.28.23 1.3.05 1.3-.14 1.26-.34 1.2-.5 1.1-.7 1-.83 5.9-5.68.2-.27.15-.3.07-.34-.02-.34-.1-.33-.16-.3-.24-.24-.3-.18-.3-.1-.35-.04h-.58l-.57-.13-.54-.2-.5-.28-.46-.37-.4-.43-.3-.48-.25-.53-.16-.57-.07-.57-.6-16.55m-.6-16.54l-.62-16.55-.12-1.14-.32-1.12-.48-1.05-.64-.98-.78-.85-.9-.72-1.02-.57-1.1-.4-1.12-.23-1.16-.05-1.15.13-1.1.3-1.06.5-.97.64-.85.78-.72.9-.57 1.02-.4 1.1-.23 1.12-.05 1.15.6 16.55" stroke="#3a414a" stroke-width="3" fill="none"/></g><g><path d="M494.77 526.44a7.38 7.38 0 0 0-7.4 7.4v49.62a3.7 3.7 0 0 1-3.68 3.7 1.42 1.42 0 0 0-.96 2.46l6.08 5.47a8.9 8.9 0 0 0 11.9 0l6.07-5.48a1.42 1.42 0 0 0-.95-2.47 3.7 3.7 0 0 1-3.7-3.7v-49.62a7.38 7.38 0 0 0-7.38-7.4z" fill="#cfe4ff"/><path d="M487.38 566.9v16.56l-.04.57-.14.57-.22.53-.3.5-.38.44-.44.37-.5.3-.53.23-.56.13-.58.05-.35.04-.3.1-.3.2-.22.26-.16.3-.08.33v.33l.06.33.16.3.22.26 6.08 5.47 1.03.8 1.14.63 1.2.46 1.27.28 1.3.1 1.3-.1 1.27-.3 1.2-.45 1.15-.64 1.02-.8 6.07-5.48.22-.26.15-.3.08-.33v-.34l-.08-.34-.16-.3-.22-.26-.28-.2-.32-.1-.33-.05-.58-.05-.56-.13-.53-.22-.5-.3-.43-.38-.38-.44-.3-.5-.22-.53-.14-.57-.05-.57V566.9m0-16.53v-16.54l-.1-1.16-.26-1.13-.45-1.07-.6-.98-.76-.9-.9-.75-.98-.6-1.07-.45-1.13-.27-1.15-.1-1.16.1-1.1.27-1.08.45-1 .6-.87.75-.75.9-.6.97-.45 1.07-.27 1.13-.1 1.16v16.54" stroke="#3a414a" stroke-width="3" fill="none"/></g><path d="M-.67 535a8 8 0 0 1 8-8h47.84a8 8 0 0 1 8 8v44a8 8 0 0 1-8 8H7.33a8 8 0 0 1-8-8z" stroke="#000" stroke-opacity="0" fill="#fff" fill-opacity="0"/><g><use xlink:href="#ah" transform="matrix(1,0,0,1,4.329710188016861,532) translate(6.75 30.025)"/></g><path d="M520 534.03a8 8 0 0 1 8-8h47.84a8 8 0 0 1 8 8v44a8 8 0 0 1-8 8H528a8 8 0 0 1-8-8z" stroke="#000" stroke-opacity="0" fill="#fff" fill-opacity="0"/><g><use xlink:href="#ai" transform="matrix(1,0,0,1,525,531.0263316449411) translate(6.75 30.025)"/></g><path d="M260 535a8 8 0 0 1 8-8h47.84a8 8 0 0 1 8 8v44a8 8 0 0 1-8 8H268a8 8 0 0 1-8-8z" stroke="#000" stroke-opacity="0" fill="#fff" fill-opacity="0"/><g><use xlink:href="#aj" transform="matrix(1,0,0,1,265,532) translate(6.75 30.025)"/></g><defs><path fill="#3a414a" d="M152 0h-7L59-203v189l32 5v9H10v-9l31-5v-208l-31-4v-10h72l76 180 84-180h68v10l-31 4v208l31 5v9h-96v-9l32-5v-189" id="ak"/><path fill="#3a414a" d="M84-170c49 0 66 33 63 87H46c-8 60 38 80 95 63v10C128-2 108 4 88 4 34 4 14-29 14-84c-1-54 22-86 70-86zm33 73c12-57-57-82-69-24-1 7-2 15-2 24h71" id="al"/><path fill="#3a414a" d="M13-81c0-71 46-101 114-85l-1-72-28-4v-8h57v238c8 3 24-2 21 12h-47l-2-12C80 23 13-1 13-81zm77-74c-37 1-44 33-45 74 0 38 9 66 45 66 14 0 27-3 36-7v-130c-10-1-24-3-36-3" id="am"/><path fill="#3a414a" d="M47-200c-23 0-25-39 0-38 13 0 18 7 20 19-1 11-8 19-20 19zM65-12l28 4v8H8v-8l28-4v-141l-24-4v-8h53v153" id="an"/><path fill="#3a414a" d="M45-84c0 64 52 80 104 63 1 25-30 25-55 25-56 0-80-32-80-88 0-76 62-98 131-80v46h-10c-5-15-4-31-23-35-47-10-67 21-67 69" id="ao"/><path fill="#3a414a" d="M32-163c41-10 102-14 102 39v112c8 3 24-2 21 12h-45l-4-17C83 13 3 13 13-46c-2-50 45-50 92-51 4-36-5-70-42-56-6 2-12 4-16 6-4 7 0 23-15 20v-36zM42-47c0 41 41 33 63 22v-59c-34 1-63-1-63 37" id="ap"/><path fill="#3a414a" d="M65-12l28 4v8H7v-8l28-4v-226l-28-4v-8h58v238" id="aq"/><g id="a"><use transform="matrix(0.07469135802469135,0,0,0.07469135802469135,0,0)" xlink:href="#ak"/><use transform="matrix(0.07469135802469135,0,0,0.07469135802469135,23.90123456790123,0)" xlink:href="#al"/><use transform="matrix(0.07469135802469135,0,0,0.07469135802469135,35.777160493827154,0)" xlink:href="#am"/><use transform="matrix(0.07469135802469135,0,0,0.07469135802469135,49.2216049382716,0)" xlink:href="#an"/><use transform="matrix(0.07469135802469135,0,0,0.07469135802469135,56.69074074074073,0)" xlink:href="#ao"/><use transform="matrix(0.07469135802469135,0,0,0.07469135802469135,68.56666666666665,0)" xlink:href="#ap"/><use transform="matrix(0.07469135802469135,0,0,0.07469135802469135,80.44259259259258,0)" xlink:href="#aq"/></g><path fill="#3a414a" d="M75-17c87 13 134-18 134-103 0-78-51-106-134-100v203zm171-102C246 5 139 7 10 0v-9l31-5v-208l-31-4v-10h107c82 0 129 35 129 117" id="ar"/><path fill="#3a414a" d="M164-154L98 4H85L17-153c-7-3-20 0-17-12h77v8l-26 4L99-38l46-115-26-4v-8h61v8" id="as"/><g id="b"><use transform="matrix(0.07469135802469135,0,0,0.07469135802469135,0,0)" xlink:href="#ar"/><use transform="matrix(0.07469135802469135,0,0,0.07469135802469135,19.34506172839506,0)" xlink:href="#al"/><use transform="matrix(0.07469135802469135,0,0,0.07469135802469135,31.220987654320982,0)" xlink:href="#as"/><use transform="matrix(0.07469135802469135,0,0,0.07469135802469135,44.66543209876542,0)" xlink:href="#an"/><use transform="matrix(0.07469135802469135,0,0,0.07469135802469135,52.134567901234554,0)" xlink:href="#ao"/><use transform="matrix(0.07469135802469135,0,0,0.07469135802469135,64.01049382716047,0)" xlink:href="#al"/></g><path fill="#3a414a" d="M52-115c0 93 80 130 150 87l7-35h11l-1 55c-23 7-52 12-83 12C60 4 19-37 15-115c-5-113 97-141 201-114l1 51h-12l-5-30c-15-9-39-16-62-16-66 0-86 41-86 109" id="at"/><path fill="#3a414a" d="M90-170c52 0 76 32 76 87 0 54-24 87-77 87-51 0-75-34-75-87 0-54 24-87 76-87zM89-10c39 0 46-35 46-73 0-39-7-73-46-73-39 1-44 34-44 73s6 72 44 73" id="au"/><path fill="#3a414a" d="M126-118c4-37-42-32-68-25v131l24 4v8H8C5-13 21-9 28-12v-141c-7-3-23 1-20-12h48l1 13c22-15 77-30 92 2 32-22 104-36 104 29v109c8 3 24-2 21 12h-75v-8l25-4v-106c3-39-45-31-72-24 7 37 1 88 3 130l25 4v8h-78v-8l24-4v-106" id="av"/><path fill="#3a414a" d="M166-85c3 67-44 102-111 85l1 64 29 4v9H6v-9l21-4v-217c-7-3-22 1-19-12h46l1 9c11-8 26-14 45-14 47 2 64 36 66 85zM56-13c53 14 83-14 78-72 7-53-33-79-78-60v132" id="aw"/><path fill="#3a414a" d="M125-118c4-37-41-34-68-26v132l23 4v8H8C5-13 21-9 28-12v-141c-7-3-23 1-20-12h47l2 13c31-23 98-29 98 31v109c7 3 23-1 20 12h-72v-8l22-4v-106" id="ax"/><path fill="#3a414a" d="M161-154L85 37C75 66 49 86 8 75V39c18-2 6 24 29 21 30-4 38-32 47-58L21-153c-7-3-20 0-17-12h77v8l-26 4 45 116 43-116-26-4v-8h62v8" id="ay"/><g id="c"><use transform="matrix(0.07469135802469135,0,0,0.07469135802469135,0,0)" xlink:href="#at"/><use transform="matrix(0.07469135802469135,0,0,0.07469135802469135,17.925925925925924,0)" xlink:href="#au"/><use transform="matrix(0.07469135802469135,0,0,0.07469135802469135,31.370370370370367,0)" xlink:href="#av"/><use transform="matrix(0.07469135802469135,0,0,0.07469135802469135,52.28395061728394,0)" xlink:href="#aw"/><use transform="matrix(0.07469135802469135,0,0,0.07469135802469135,65.72839506172838,0)" xlink:href="#ap"/><use transform="matrix(0.07469135802469135,0,0,0.07469135802469135,77.6043209876543,0)" xlink:href="#ax"/><use transform="matrix(0.07469135802469135,0,0,0.07469135802469135,91.04876543209875,0)" xlink:href="#ay"/></g><path fill="#3a414a" d="M54-38c-1 25 24 26 44 20v12C71 10 25 9 25-35v-115H4c-2-14 14-10 21-15l18-38h11v38h38v15H54v112" id="az"/><path fill="#3a414a" d="M57-145c16-10 35-24 60-25v45c-19 1-8-30-40-17l-20 6v124l29 4v8H7v-8l21-4v-141c-8-3-24 2-21-12h48" id="aA"/><path fill="#3a414a" d="M141-152c28 39 5 97-54 97-9 0-20-2-27-3L49-35c29 22 130-14 124 52-4 45-38 57-88 61C21 83-8 26 45-2 33-6 22-15 21-31l28-31c-19-9-28-26-28-51-2-51 53-65 100-52l38-20 7 8zM85 64c35 0 61-11 61-42 0-35-57-17-89-21-9 8-16 19-17 34 0 25 19 29 45 29zM52-113c1 26 7 46 35 44 28-1 34-16 35-44 0-26-6-43-34-43s-36 17-36 43" id="aB"/><g id="d"><use transform="matrix(0.07469135802469135,0,0,0.07469135802469135,0,0)" xlink:href="#ak"/><use transform="matrix(0.07469135802469135,0,0,0.07469135802469135,23.90123456790123,0)" xlink:href="#au"/><use transform="matrix(0.07469135802469135,0,0,0.07469135802469135,37.34567901234567,0)" xlink:href="#ax"/><use transform="matrix(0.07469135802469135,0,0,0.07469135802469135,50.79012345679011,0)" xlink:href="#an"/><use transform="matrix(0.07469135802469135,0,0,0.07469135802469135,58.25925925925925,0)" xlink:href="#az"/><use transform="matrix(0.07469135802469135,0,0,0.07469135802469135,65.72839506172838,0)" xlink:href="#au"/><use transform="matrix(0.07469135802469135,0,0,0.07469135802469135,79.17283950617282,0)" xlink:href="#aA"/><use transform="matrix(0.07469135802469135,0,0,0.07469135802469135,88.0611111111111,0)" xlink:href="#an"/><use transform="matrix(0.07469135802469135,0,0,0.07469135802469135,95.53024691358023,0)" xlink:href="#ax"/><use transform="matrix(0.07469135802469135,0,0,0.07469135802469135,108.97469135802467,0)" xlink:href="#aB"/></g><g id="e"><use transform="matrix(0.07469135802469135,0,0,0.07469135802469135,0,0)" xlink:href="#ar"/><use transform="matrix(0.07469135802469135,0,0,0.07469135802469135,19.34506172839506,0)" xlink:href="#al"/><use transform="matrix(0.07469135802469135,0,0,0.07469135802469135,31.220987654320982,0)" xlink:href="#as"/><use transform="matrix(0.07469135802469135,0,0,0.07469135802469135,44.66543209876542,0)" xlink:href="#an"/><use transform="matrix(0.07469135802469135,0,0,0.07469135802469135,52.134567901234554,0)" xlink:href="#ao"/><use transform="matrix(0.07469135802469135,0,0,0.07469135802469135,64.01049382716047,0)" xlink:href="#al"/></g><path fill="#3a414a" d="M81-9v9H4v-9l26-5 81-224h33l83 224 30 5v9h-99v-9l31-5-23-68H73L49-14zm38-203L78-98h82" id="aC"/><path fill="#3a414a" d="M75-108c48 3 76-12 76-58s-28-57-76-54v112zm111-58c-1 60-46 78-111 74v78l37 5v9H13v-9l28-5v-208l-31-4v-10c81 1 178-14 176 70" id="aD"/><path fill="#3a414a" d="M77-14l30 5v9H13v-9l30-5v-208l-30-4v-10h94v10l-30 4v208" id="aE"/><g id="f"><use transform="matrix(0.07469135802469135,0,0,0.07469135802469135,0,0)" xlink:href="#aC"/><use transform="matrix(0.07469135802469135,0,0,0.07469135802469135,19.34506172839506,0)" xlink:href="#aD"/><use transform="matrix(0.07469135802469135,0,0,0.07469135802469135,34.28333333333333,0)" xlink:href="#aE"/></g><path fill="#3a414a" d="M41-130c7 48 86 23 86 84 0 56-69 57-112 41v-40c20 0 9 29 31 31 35 19 77-26 41-50-27-18-72-13-72-59 0-50 58-52 100-41v36c-19 1-8-25-28-25-21-7-50-1-46 23" id="aF"/><g id="g"><use transform="matrix(0.07469135802469135,0,0,0.07469135802469135,0,0)" xlink:href="#aC"/><use transform="matrix(0.07469135802469135,0,0,0.07469135802469135,19.34506172839506,0)" xlink:href="#ao"/><use transform="matrix(0.07469135802469135,0,0,0.07469135802469135,31.220987654320982,0)" xlink:href="#ao"/><use transform="matrix(0.07469135802469135,0,0,0.07469135802469135,43.096913580246905,0)" xlink:href="#al"/><use transform="matrix(0.07469135802469135,0,0,0.07469135802469135,54.97283950617283,0)" xlink:href="#aF"/><use transform="matrix(0.07469135802469135,0,0,0.07469135802469135,65.42962962962962,0)" xlink:href="#aF"/></g><path fill="#3a414a" d="M103-236c-39-15-35 32-34 71h44v15H69v136l35 6v8H15v-8l25-6v-136H11v-9l29-7c-6-59 23-100 80-84v36c-15 2-12-14-17-22" id="aG"/><g id="h"><use transform="matrix(0.07469135802469135,0,0,0.07469135802469135,0,0)" xlink:href="#aE"/><use transform="matrix(0.07469135802469135,0,0,0.07469135802469135,8.88827160493827,0)" xlink:href="#ax"/><use transform="matrix(0.07469135802469135,0,0,0.07469135802469135,22.33271604938271,0)" xlink:href="#aG"/><use transform="matrix(0.07469135802469135,0,0,0.07469135802469135,31.22098765432098,0)" xlink:href="#au"/><use transform="matrix(0.07469135802469135,0,0,0.07469135802469135,44.66543209876542,0)" xlink:href="#aA"/><use transform="matrix(0.07469135802469135,0,0,0.07469135802469135,53.55370370370369,0)" xlink:href="#av"/><use transform="matrix(0.07469135802469135,0,0,0.07469135802469135,74.46728395061726,0)" xlink:href="#ap"/><use transform="matrix(0.07469135802469135,0,0,0.07469135802469135,86.34320987654318,0)" xlink:href="#az"/><use transform="matrix(0.07469135802469135,0,0,0.07469135802469135,93.81234567901232,0)" xlink:href="#an"/><use transform="matrix(0.07469135802469135,0,0,0.07469135802469135,101.28148148148146,0)" xlink:href="#au"/><use transform="matrix(0.07469135802469135,0,0,0.07469135802469135,114.7259259259259,0)" xlink:href="#ax"/></g><path fill="#3a414a" d="M126-119c3-38-42-31-69-25v132l23 4v8H7v-8l21-4v-226l-24-4v-8h53l-1 98c31-22 99-31 99 31v109c7 3 23-1 20 12h-71v-8l22-4v-107" id="aH"/><g id="i"><use transform="matrix(0.07469135802469135,0,0,0.07469135802469135,0,0)" xlink:href="#at"/><use transform="matrix(0.07469135802469135,0,0,0.07469135802469135,17.925925925925924,0)" xlink:href="#aH"/><use transform="matrix(0.07469135802469135,0,0,0.07469135802469135,31.370370370370367,0)" xlink:href="#ap"/><use transform="matrix(0.07469135802469135,0,0,0.07469135802469135,43.2462962962963,0)" xlink:href="#aA"/><use transform="matrix(0.07469135802469135,0,0,0.07469135802469135,52.13456790123456,0)" xlink:href="#az"/></g><path fill="#3a414a" d="M199-173c-1 36-21 56-49 65l64 94 26 5v9h-57l-66-103H75v89l35 5v9H13v-9l28-5v-208l-31-4v-10c80 4 190-20 189 63zM75-119c50 2 89-1 89-51 0-49-39-52-89-50v101" id="aI"/><g id="j"><use transform="matrix(0.07469135802469135,0,0,0.07469135802469135,0,0)" xlink:href="#aI"/><use transform="matrix(0.07469135802469135,0,0,0.07469135802469135,17.925925925925924,0)" xlink:href="#al"/><use transform="matrix(0.07469135802469135,0,0,0.07469135802469135,29.801851851851847,0)" xlink:href="#aq"/><use transform="matrix(0.07469135802469135,0,0,0.07469135802469135,37.27098765432098,0)" xlink:href="#ap"/><use transform="matrix(0.07469135802469135,0,0,0.07469135802469135,49.1469135802469,0)" xlink:href="#az"/><use transform="matrix(0.07469135802469135,0,0,0.07469135802469135,56.61604938271603,0)" xlink:href="#an"/><use transform="matrix(0.07469135802469135,0,0,0.07469135802469135,64.08518518518517,0)" xlink:href="#as"/><use transform="matrix(0.07469135802469135,0,0,0.07469135802469135,77.52962962962961,0)" xlink:href="#al"/></g><g id="k"><use transform="matrix(0.07469135802469135,0,0,0.07469135802469135,0,0)" xlink:href="#aI"/><use transform="matrix(0.07469135802469135,0,0,0.07469135802469135,17.925925925925924,0)" xlink:href="#al"/><use transform="matrix(0.07469135802469135,0,0,0.07469135802469135,29.801851851851847,0)" xlink:href="#aq"/><use transform="matrix(0.07469135802469135,0,0,0.07469135802469135,37.27098765432098,0)" xlink:href="#ap"/><use transform="matrix(0.07469135802469135,0,0,0.07469135802469135,49.1469135802469,0)" xlink:href="#az"/><use transform="matrix(0.07469135802469135,0,0,0.07469135802469135,56.61604938271603,0)" xlink:href="#an"/><use transform="matrix(0.07469135802469135,0,0,0.07469135802469135,64.08518518518517,0)" xlink:href="#au"/><use transform="matrix(0.07469135802469135,0,0,0.07469135802469135,77.52962962962961,0)" xlink:href="#ax"/><use transform="matrix(0.07469135802469135,0,0,0.07469135802469135,90.97407407407405,0)" xlink:href="#aF"/><use transform="matrix(0.07469135802469135,0,0,0.07469135802469135,101.43086419753082,0)" xlink:href="#aH"/><use transform="matrix(0.07469135802469135,0,0,0.07469135802469135,114.87530864197527,0)" xlink:href="#an"/><use transform="matrix(0.07469135802469135,0,0,0.07469135802469135,122.34444444444442,0)" xlink:href="#aw"/></g><g id="l"><use transform="matrix(0.07469135802469135,0,0,0.07469135802469135,0,0)" xlink:href="#aD"/><use transform="matrix(0.07469135802469135,0,0,0.07469135802469135,14.938271604938269,0)" xlink:href="#ap"/><use transform="matrix(0.07469135802469135,0,0,0.07469135802469135,26.81419753086419,0)" xlink:href="#az"/><use transform="matrix(0.07469135802469135,0,0,0.07469135802469135,34.283333333333324,0)" xlink:href="#an"/><use transform="matrix(0.07469135802469135,0,0,0.07469135802469135,41.75246913580246,0)" xlink:href="#al"/><use transform="matrix(0.07469135802469135,0,0,0.07469135802469135,53.62839506172838,0)" xlink:href="#ax"/><use transform="matrix(0.07469135802469135,0,0,0.07469135802469135,67.07283950617283,0)" xlink:href="#az"/></g><g id="m"><use transform="matrix(0.07469135802469135,0,0,0.07469135802469135,0,0)" xlink:href="#at"/><use transform="matrix(0.07469135802469135,0,0,0.07469135802469135,17.925925925925924,0)" xlink:href="#ap"/><use transform="matrix(0.07469135802469135,0,0,0.07469135802469135,29.801851851851847,0)" xlink:href="#av"/><use transform="matrix(0.07469135802469135,0,0,0.07469135802469135,50.71543209876541,0)" xlink:href="#aw"/></g><path fill="#3a414a" d="M178-68c0 79-95 82-154 59v-54h12c1 35 22 52 60 52 50 0 69-58 33-82-39-24-105-21-105-85 0-67 86-66 142-53v49h-12l-6-29c-31-27-121-7-89 42 28 43 119 24 119 101" id="aJ"/><g id="n"><use transform="matrix(0.07469135802469135,0,0,0.07469135802469135,0,0)" xlink:href="#aJ"/><use transform="matrix(0.07469135802469135,0,0,0.07469135802469135,14.938271604938269,0)" xlink:href="#ao"/><use transform="matrix(0.07469135802469135,0,0,0.07469135802469135,26.81419753086419,0)" xlink:href="#aH"/><use transform="matrix(0.07469135802469135,0,0,0.07469135802469135,40.258641975308635,0)" xlink:href="#au"/><use transform="matrix(0.07469135802469135,0,0,0.07469135802469135,53.70308641975308,0)" xlink:href="#au"/><use transform="matrix(0.07469135802469135,0,0,0.07469135802469135,67.14753086419752,0)" xlink:href="#aq"/></g><path fill="#3a414a" d="M10-9l31-5v-208l-31-4v-10h177v57h-11l-6-38c-28-4-63-3-95-3v92h63l6-28h11v73h-11l-6-29H75v96l105-3 10-43h12l-3 62H10v-9" id="aK"/><g id="o"><use transform="matrix(0.07469135802469135,0,0,0.07469135802469135,0,0)" xlink:href="#aK"/><use transform="matrix(0.07469135802469135,0,0,0.07469135802469135,16.357407407407404,0)" xlink:href="#aq"/><use transform="matrix(0.07469135802469135,0,0,0.07469135802469135,23.82654320987654,0)" xlink:href="#am"/><use transform="matrix(0.07469135802469135,0,0,0.07469135802469135,37.27098765432098,0)" xlink:href="#al"/><use transform="matrix(0.07469135802469135,0,0,0.07469135802469135,49.1469135802469,0)" xlink:href="#aA"/><use transform="matrix(0.07469135802469135,0,0,0.07469135802469135,58.03518518518517,0)" xlink:href="#aq"/><use transform="matrix(0.07469135802469135,0,0,0.07469135802469135,65.50432098765431,0)" xlink:href="#ay"/></g><g id="p"><use transform="matrix(0.07469135802469135,0,0,0.07469135802469135,0,0)" xlink:href="#at"/><use transform="matrix(0.07469135802469135,0,0,0.07469135802469135,17.925925925925924,0)" xlink:href="#ap"/><use transform="matrix(0.07469135802469135,0,0,0.07469135802469135,29.801851851851847,0)" xlink:href="#aA"/><use transform="matrix(0.07469135802469135,0,0,0.07469135802469135,38.69012345679012,0)" xlink:href="#al"/></g><g id="q"><use transform="matrix(0.07469135802469135,0,0,0.07469135802469135,0,0)" xlink:href="#at"/><use transform="matrix(0.07469135802469135,0,0,0.07469135802469135,17.925925925925924,0)" xlink:href="#al"/><use transform="matrix(0.07469135802469135,0,0,0.07469135802469135,29.801851851851847,0)" xlink:href="#ax"/><use transform="matrix(0.07469135802469135,0,0,0.07469135802469135,43.2462962962963,0)" xlink:href="#az"/><use transform="matrix(0.07469135802469135,0,0,0.07469135802469135,50.715432098765426,0)" xlink:href="#al"/><use transform="matrix(0.07469135802469135,0,0,0.07469135802469135,62.591358024691345,0)" xlink:href="#aA"/></g><path fill="#3a414a" d="M134-16c44-1 70-21 70-64v-142l-32-4v-10h80v10l-30 4v141c0 57-33 84-91 85-58 0-93-26-93-82v-144l-30-4v-10h94v10l-30 4c7 82-31 209 62 206" id="aL"/><g id="r"><use transform="matrix(0.07469135802469135,0,0,0.07469135802469135,0,0)" xlink:href="#aL"/><use transform="matrix(0.07469135802469135,0,0,0.07469135802469135,19.34506172839506,0)" xlink:href="#aF"/><use transform="matrix(0.07469135802469135,0,0,0.07469135802469135,29.801851851851847,0)" xlink:href="#al"/><use transform="matrix(0.07469135802469135,0,0,0.07469135802469135,41.67777777777777,0)" xlink:href="#aA"/></g><path fill="#3a414a" d="M75-106v92l39 5v9H13v-9l28-5v-208l-31-4v-10h177v57h-11l-6-38c-28-4-63-3-95-3v98h69l5-28h11v73h-11l-5-29H75" id="aM"/><g id="s"><use transform="matrix(0.07469135802469135,0,0,0.07469135802469135,0,0)" xlink:href="#aM"/><use transform="matrix(0.07469135802469135,0,0,0.07469135802469135,14.938271604938269,0)" xlink:href="#ap"/><use transform="matrix(0.07469135802469135,0,0,0.07469135802469135,26.81419753086419,0)" xlink:href="#ao"/><use transform="matrix(0.07469135802469135,0,0,0.07469135802469135,38.69012345679012,0)" xlink:href="#an"/><use transform="matrix(0.07469135802469135,0,0,0.07469135802469135,46.15925925925925,0)" xlink:href="#aq"/><use transform="matrix(0.07469135802469135,0,0,0.07469135802469135,53.62839506172838,0)" xlink:href="#an"/><use transform="matrix(0.07469135802469135,0,0,0.07469135802469135,61.09753086419751,0)" xlink:href="#az"/><use transform="matrix(0.07469135802469135,0,0,0.07469135802469135,68.56666666666665,0)" xlink:href="#ay"/></g><g id="t"><use transform="matrix(0.07469135802469135,0,0,0.07469135802469135,0,0)" xlink:href="#ak"/><use transform="matrix(0.07469135802469135,0,0,0.07469135802469135,23.90123456790123,0)" xlink:href="#al"/><use transform="matrix(0.07469135802469135,0,0,0.07469135802469135,35.777160493827154,0)" xlink:href="#am"/><use transform="matrix(0.07469135802469135,0,0,0.07469135802469135,49.2216049382716,0)" xlink:href="#an"/><use transform="matrix(0.07469135802469135,0,0,0.07469135802469135,56.69074074074073,0)" xlink:href="#ao"/><use transform="matrix(0.07469135802469135,0,0,0.07469135802469135,68.56666666666665,0)" xlink:href="#ap"/><use transform="matrix(0.07469135802469135,0,0,0.07469135802469135,80.44259259259258,0)" xlink:href="#az"/><use transform="matrix(0.07469135802469135,0,0,0.07469135802469135,87.91172839506171,0)" xlink:href="#an"/><use transform="matrix(0.07469135802469135,0,0,0.07469135802469135,95.38086419753085,0)" xlink:href="#au"/><use transform="matrix(0.07469135802469135,0,0,0.07469135802469135,108.8253086419753,0)" xlink:href="#ax"/></g><g id="u"><use transform="matrix(0.07469135802469135,0,0,0.07469135802469135,0,0)" xlink:href="#aC"/><use transform="matrix(0.07469135802469135,0,0,0.07469135802469135,19.34506172839506,0)" xlink:href="#am"/><use transform="matrix(0.07469135802469135,0,0,0.07469135802469135,32.7895061728395,0)" xlink:href="#av"/><use transform="matrix(0.07469135802469135,0,0,0.07469135802469135,53.70308641975308,0)" xlink:href="#an"/><use transform="matrix(0.07469135802469135,0,0,0.07469135802469135,61.17222222222221,0)" xlink:href="#ax"/><use transform="matrix(0.07469135802469135,0,0,0.07469135802469135,74.61666666666665,0)" xlink:href="#an"/><use transform="matrix(0.07469135802469135,0,0,0.07469135802469135,82.08580246913579,0)" xlink:href="#aF"/><use transform="matrix(0.07469135802469135,0,0,0.07469135802469135,92.54259259259258,0)" xlink:href="#az"/><use transform="matrix(0.07469135802469135,0,0,0.07469135802469135,100.01172839506171,0)" xlink:href="#aA"/><use transform="matrix(0.07469135802469135,0,0,0.07469135802469135,108.89999999999998,0)" xlink:href="#ap"/><use transform="matrix(0.07469135802469135,0,0,0.07469135802469135,120.7759259259259,0)" xlink:href="#az"/><use transform="matrix(0.07469135802469135,0,0,0.07469135802469135,128.24506172839503,0)" xlink:href="#an"/><use transform="matrix(0.07469135802469135,0,0,0.07469135802469135,135.71419753086417,0)" xlink:href="#au"/><use transform="matrix(0.07469135802469135,0,0,0.07469135802469135,149.15864197530863,0)" xlink:href="#ax"/></g><path fill="#3a414a" d="M53-14c58 12 82-15 82-73 0-52-35-77-82-58v131zM89 4C64 4 42-2 24-9v-229l-24-4v-8h53l-1 94c48-33 114-4 114 69 0 57-23 91-77 91" id="aN"/><g id="v"><use transform="matrix(0.07469135802469135,0,0,0.07469135802469135,0,0)" xlink:href="#at"/><use transform="matrix(0.07469135802469135,0,0,0.07469135802469135,17.925925925925924,0)" xlink:href="#ap"/><use transform="matrix(0.07469135802469135,0,0,0.07469135802469135,29.801851851851847,0)" xlink:href="#aA"/><use transform="matrix(0.07469135802469135,0,0,0.07469135802469135,38.69012345679012,0)" xlink:href="#aN"/></g><path fill="#3a414a" d="M60-80l68-73c-7-3-20 0-17-12h58c3 13-13 9-20 12l-47 48 60 93c7 3 21-1 18 12h-68c-3-12 9-9 15-12L82-83 60-60v48c7 3 21-1 18 12H10v-8l21-4v-226l-24-4v-8h53v170" id="aO"/><g id="w"><use transform="matrix(0.07469135802469135,0,0,0.07469135802469135,0,0)" xlink:href="#aE"/><use transform="matrix(0.07469135802469135,0,0,0.07469135802469135,8.88827160493827,0)" xlink:href="#ax"/><use transform="matrix(0.07469135802469135,0,0,0.07469135802469135,22.33271604938271,0)" xlink:href="#az"/><use transform="matrix(0.07469135802469135,0,0,0.07469135802469135,29.801851851851843,0)" xlink:href="#ap"/><use transform="matrix(0.07469135802469135,0,0,0.07469135802469135,41.67777777777776,0)" xlink:href="#aO"/><use transform="matrix(0.07469135802469135,0,0,0.07469135802469135,55.122222222222206,0)" xlink:href="#al"/></g><path fill="#3a414a" d="M75-131c50 2 93 3 93-48 0-46-48-41-93-41v89zm0 115c55 4 111 6 111-51 0-53-58-48-111-48v99zm148-52C223 24 102-3 10 0v-9l31-5v-208l-31-4v-10c77 6 193-24 194 56 0 33-20 48-48 54 36 5 67 20 67 58" id="aP"/><g id="x"><use transform="matrix(0.07469135802469135,0,0,0.07469135802469135,0,0)" xlink:href="#aP"/><use transform="matrix(0.07469135802469135,0,0,0.07469135802469135,17.925925925925924,0)" xlink:href="#aq"/><use transform="matrix(0.07469135802469135,0,0,0.07469135802469135,25.395061728395056,0)" xlink:href="#au"/><use transform="matrix(0.07469135802469135,0,0,0.07469135802469135,38.8395061728395,0)" xlink:href="#au"/><use transform="matrix(0.07469135802469135,0,0,0.07469135802469135,52.28395061728394,0)" xlink:href="#am"/></g><path fill="#3a414a" d="M124-13C89 8 26 15 26-45v-108c-8-3-24 2-21-12h50v118c-3 37 42 32 69 25v-131l-25-4v-8h54v153c8 3 24-2 21 12h-48" id="aQ"/><g id="y"><use transform="matrix(0.07469135802469135,0,0,0.07469135802469135,0,0)" xlink:href="#aJ"/><use transform="matrix(0.07469135802469135,0,0,0.07469135802469135,14.938271604938269,0)" xlink:href="#aQ"/><use transform="matrix(0.07469135802469135,0,0,0.07469135802469135,28.38271604938271,0)" xlink:href="#aB"/><use transform="matrix(0.07469135802469135,0,0,0.07469135802469135,41.82716049382715,0)" xlink:href="#ap"/><use transform="matrix(0.07469135802469135,0,0,0.07469135802469135,53.70308641975308,0)" xlink:href="#aA"/></g><g id="z"><use transform="matrix(0.07469135802469135,0,0,0.07469135802469135,0,0)" xlink:href="#ak"/><use transform="matrix(0.07469135802469135,0,0,0.07469135802469135,23.90123456790123,0)" xlink:href="#al"/><use transform="matrix(0.07469135802469135,0,0,0.07469135802469135,35.777160493827154,0)" xlink:href="#ap"/><use transform="matrix(0.07469135802469135,0,0,0.07469135802469135,47.65308641975308,0)" xlink:href="#aF"/><use transform="matrix(0.07469135802469135,0,0,0.07469135802469135,58.109876543209865,0)" xlink:href="#aQ"/><use transform="matrix(0.07469135802469135,0,0,0.07469135802469135,71.55432098765431,0)" xlink:href="#aA"/><use transform="matrix(0.07469135802469135,0,0,0.07469135802469135,80.44259259259258,0)" xlink:href="#al"/><use transform="matrix(0.07469135802469135,0,0,0.07469135802469135,92.3185185185185,0)" xlink:href="#av"/><use transform="matrix(0.07469135802469135,0,0,0.07469135802469135,113.23209876543208,0)" xlink:href="#al"/><use transform="matrix(0.07469135802469135,0,0,0.07469135802469135,125.108024691358,0)" xlink:href="#ax"/><use transform="matrix(0.07469135802469135,0,0,0.07469135802469135,138.55246913580245,0)" xlink:href="#az"/></g><g id="A"><use transform="matrix(0.07469135802469135,0,0,0.07469135802469135,0,0)" xlink:href="#aI"/><use transform="matrix(0.07469135802469135,0,0,0.07469135802469135,17.925925925925924,0)" xlink:href="#al"/><use transform="matrix(0.07469135802469135,0,0,0.07469135802469135,29.801851851851847,0)" xlink:href="#ao"/><use transform="matrix(0.07469135802469135,0,0,0.07469135802469135,41.67777777777777,0)" xlink:href="#au"/><use transform="matrix(0.07469135802469135,0,0,0.07469135802469135,55.12222222222221,0)" xlink:href="#aA"/><use transform="matrix(0.07469135802469135,0,0,0.07469135802469135,64.01049382716049,0)" xlink:href="#am"/></g><g id="B"><use transform="matrix(0.07469135802469135,0,0,0.07469135802469135,0,0)" xlink:href="#aC"/><use transform="matrix(0.07469135802469135,0,0,0.07469135802469135,19.34506172839506,0)" xlink:href="#aB"/><use transform="matrix(0.07469135802469135,0,0,0.07469135802469135,32.7895061728395,0)" xlink:href="#aA"/><use transform="matrix(0.07469135802469135,0,0,0.07469135802469135,41.67777777777777,0)" xlink:href="#al"/><use transform="matrix(0.07469135802469135,0,0,0.07469135802469135,53.55370370370369,0)" xlink:href="#al"/><use transform="matrix(0.07469135802469135,0,0,0.07469135802469135,65.42962962962962,0)" xlink:href="#av"/><use transform="matrix(0.07469135802469135,0,0,0.07469135802469135,86.3432098765432,0)" xlink:href="#al"/><use transform="matrix(0.07469135802469135,0,0,0.07469135802469135,98.21913580246913,0)" xlink:href="#ax"/><use transform="matrix(0.07469135802469135,0,0,0.07469135802469135,111.66358024691357,0)" xlink:href="#az"/></g><path fill="#3a414a" d="M35-180H24v-56h146v14L65 0H42l103-209H41" id="aR"/><path fill="#3a414a" d="M104-123c39 3 61 21 62 59C167 7 83 12 19-4l-2-50h12c2 29 16 43 51 43 38 0 54-19 54-55 2-43-34-49-75-50v-14c37 0 64-7 64-48 0-47-47-56-81-36l-6 29H24v-46c51-13 135-13 131 51-2 34-20 52-51 57" id="aS"/><g id="C"><use transform="matrix(0.05,0,0,0.05,0,0)" xlink:href="#aR"/><use transform="matrix(0.05,0,0,0.05,9,0)" xlink:href="#aS"/></g><path fill="#3a414a" d="M142-52V0h-30v-52H7v-23l115-162h20v160h32v25h-32zm-30-25l-1-119L27-77h85" id="aT"/><g id="D"><use transform="matrix(0.05,0,0,0.05,0,0)" xlink:href="#aT"/><use transform="matrix(0.05,0,0,0.05,9,0)" xlink:href="#aS"/></g><path fill="#3a414a" d="M110-14l48 5v9H32v-9l48-5v-192l-48 17v-10l69-39h9v224" id="aU"/><path fill="#3a414a" d="M90-239c59 0 76 52 76 120S152 4 89 4C31 4 14-51 14-119c0-67 17-120 76-120zM89-10c45-6 45-58 45-109 0-50 0-101-45-106-45 4-43 57-43 106 0 50-2 104 43 109" id="aV"/><g id="E"><use transform="matrix(0.05,0,0,0.05,0,0)" xlink:href="#aU"/><use transform="matrix(0.05,0,0,0.05,9,0)" xlink:href="#aV"/><use transform="matrix(0.05,0,0,0.05,18,0)" xlink:href="#aV"/></g><path fill="#3a414a" d="M24-231c66-21 156 2 128 81C132-92 78-66 39-27h121V0H16v-26l59-54c26-25 47-47 47-97 0-48-47-57-81-37l-6 29H24v-46" id="aW"/><path fill="#3a414a" d="M48-126c45-28 121-18 121 53 0 50-25 77-72 77-63 0-80-54-82-120-3-88 52-142 140-116v40h-12c2-42-66-39-79-8-8 20-16 43-16 74zm0 11c2 50 2 105 49 105 33 0 37-26 40-60 5-60-49-61-89-45" id="aX"/><g id="F"><use transform="matrix(0.05,0,0,0.05,0,0)" xlink:href="#aW"/><use transform="matrix(0.05,0,0,0.05,9,0)" xlink:href="#aU"/><use transform="matrix(0.05,0,0,0.05,18,0)" xlink:href="#aX"/></g><use transform="matrix(0.05,0,0,0.05,0,0)" xlink:href="#ar" id="G"/><path fill="#3a414a" d="M134-68c4-52-44-63-88-51H29v-117h119v27H45v75c60-10 121-2 121 64C166 3 87 15 23-4l-2-50h12c1 28 14 43 47 43 39 0 51-20 54-57" id="aY"/><path fill="#3a414a" d="M90-239c42 0 69 19 69 61 0 28-14 44-35 53 25 8 42 28 42 61 0 47-28 68-77 68-48 0-75-21-75-68-1-33 18-51 41-61-19-9-34-25-34-53 0-42 26-61 69-61zM89-10c34 0 46-20 46-54 0-32-11-53-46-53-34 0-44 20-44 53-1 34 11 54 44 54zm0-123c28 0 38-16 38-45s-9-47-38-47c-28-1-36 18-36 47s8 45 36 45" id="aZ"/><path fill="#3a414a" d="M42-37c43 0 23 74-4 81-7 4-14 8-24 11V42c17-5 29-14 31-30C42-2 20 1 21-18c0-12 9-19 21-19" id="ba"/><path fill="#3a414a" d="M133-108C87-80 6-93 12-164c4-49 26-74 76-74 64 1 77 52 77 120C165-26 111 22 21-2v-41h11C28-1 99-4 114-33c10-20 17-43 19-75zm0-12c-3-48 0-104-45-104-34 0-44 25-44 61 0 32 10 52 43 52 17 0 33-4 46-9" id="bb"/><g id="H"><use transform="matrix(0.05,0,0,0.05,0,0)" xlink:href="#aY"/><use transform="matrix(0.05,0,0,0.05,9,0)" xlink:href="#aZ"/><use transform="matrix(0.05,0,0,0.05,18,0)" xlink:href="#aR"/><use transform="matrix(0.05,0,0,0.05,27,0)" xlink:href="#ba"/><use transform="matrix(0.05,0,0,0.05,31.5,0)" xlink:href="#bb"/><use transform="matrix(0.05,0,0,0.05,40.5,0)" xlink:href="#aZ"/><use transform="matrix(0.05,0,0,0.05,49.5,0)" xlink:href="#aV"/></g><g id="I"><use transform="matrix(0.05,0,0,0.05,0,0)" xlink:href="#aU"/><use transform="matrix(0.05,0,0,0.05,9,0)" xlink:href="#bb"/><use transform="matrix(0.05,0,0,0.05,18,0)" xlink:href="#aY"/><use transform="matrix(0.05,0,0,0.05,27,0)" xlink:href="#ba"/><use transform="matrix(0.05,0,0,0.05,31.5,0)" xlink:href="#bb"/><use transform="matrix(0.05,0,0,0.05,40.5,0)" xlink:href="#bb"/><use transform="matrix(0.05,0,0,0.05,49.5,0)" xlink:href="#aS"/></g><g id="J"><use transform="matrix(0.05,0,0,0.05,0,0)" xlink:href="#aU"/><use transform="matrix(0.05,0,0,0.05,9,0)" xlink:href="#aV"/><use transform="matrix(0.05,0,0,0.05,18,0)" xlink:href="#aV"/><use transform="matrix(0.05,0,0,0.05,27,0)" xlink:href="#ba"/><use transform="matrix(0.05,0,0,0.05,31.5,0)" xlink:href="#aV"/><use transform="matrix(0.05,0,0,0.05,40.5,0)" xlink:href="#aV"/><use transform="matrix(0.05,0,0,0.05,49.5,0)" xlink:href="#aV"/></g><g id="K"><use transform="matrix(0.05,0,0,0.05,0,0)" xlink:href="#aW"/><use transform="matrix(0.05,0,0,0.05,9,0)" xlink:href="#aY"/><use transform="matrix(0.05,0,0,0.05,18,0)" xlink:href="#ba"/><use transform="matrix(0.05,0,0,0.05,22.5,0)" xlink:href="#aV"/><use transform="matrix(0.05,0,0,0.05,31.5,0)" xlink:href="#aV"/><use transform="matrix(0.05,0,0,0.05,40.5,0)" xlink:href="#aV"/></g><g id="L"><use transform="matrix(0.05,0,0,0.05,0,0)" xlink:href="#aR"/><use transform="matrix(0.05,0,0,0.05,9,0)" xlink:href="#aY"/><use transform="matrix(0.05,0,0,0.05,18,0)" xlink:href="#ba"/><use transform="matrix(0.05,0,0,0.05,22.5,0)" xlink:href="#aV"/><use transform="matrix(0.05,0,0,0.05,31.5,0)" xlink:href="#aV"/><use transform="matrix(0.05,0,0,0.05,40.5,0)" xlink:href="#aV"/></g><g id="M"><use transform="matrix(0.05,0,0,0.05,0,0)" xlink:href="#aS"/><use transform="matrix(0.05,0,0,0.05,9,0)" xlink:href="#bb"/><use transform="matrix(0.05,0,0,0.05,18,0)" xlink:href="#aU"/><use transform="matrix(0.05,0,0,0.05,27,0)" xlink:href="#ba"/><use transform="matrix(0.05,0,0,0.05,31.5,0)" xlink:href="#bb"/><use transform="matrix(0.05,0,0,0.05,40.5,0)" xlink:href="#aZ"/><use transform="matrix(0.05,0,0,0.05,49.5,0)" xlink:href="#aR"/></g><g id="N"><use transform="matrix(0.05,0,0,0.05,0,0)" xlink:href="#aW"/><use transform="matrix(0.05,0,0,0.05,9,0)" xlink:href="#aW"/><use transform="matrix(0.05,0,0,0.05,18,0)" xlink:href="#ba"/><use transform="matrix(0.05,0,0,0.05,22.5,0)" xlink:href="#aY"/><use transform="matrix(0.05,0,0,0.05,31.5,0)" xlink:href="#aV"/><use transform="matrix(0.05,0,0,0.05,40.5,0)" xlink:href="#aV"/></g><g id="O"><use transform="matrix(0.05,0,0,0.05,0,0)" xlink:href="#aY"/><use transform="matrix(0.05,0,0,0.05,9,0)" xlink:href="#aW"/><use transform="matrix(0.05,0,0,0.05,18,0)" xlink:href="#ba"/><use transform="matrix(0.05,0,0,0.05,22.5,0)" xlink:href="#aY"/><use transform="matrix(0.05,0,0,0.05,31.5,0)" xlink:href="#aV"/><use transform="matrix(0.05,0,0,0.05,40.5,0)" xlink:href="#aV"/></g><g id="P"><use transform="matrix(0.05,0,0,0.05,0,0)" xlink:href="#aS"/><use transform="matrix(0.05,0,0,0.05,9,0)" xlink:href="#bb"/><use transform="matrix(0.05,0,0,0.05,18,0)" xlink:href="#aT"/><use transform="matrix(0.05,0,0,0.05,27,0)" xlink:href="#ba"/><use transform="matrix(0.05,0,0,0.05,31.5,0)" xlink:href="#aX"/><use transform="matrix(0.05,0,0,0.05,40.5,0)" xlink:href="#aR"/><use transform="matrix(0.05,0,0,0.05,49.5,0)" xlink:href="#aR"/></g><g id="Q"><use transform="matrix(0.05,0,0,0.05,0,0)" xlink:href="#aU"/><use transform="matrix(0.05,0,0,0.05,9,0)" xlink:href="#ba"/><use transform="matrix(0.05,0,0,0.05,13.5,0)" xlink:href="#aV"/><use transform="matrix(0.05,0,0,0.05,22.5,0)" xlink:href="#aV"/><use transform="matrix(0.05,0,0,0.05,31.5,0)" xlink:href="#aV"/><use transform="matrix(0.05,0,0,0.05,40.5,0)" xlink:href="#ba"/><use transform="matrix(0.05,0,0,0.05,45,0)" xlink:href="#aV"/><use transform="matrix(0.05,0,0,0.05,54,0)" xlink:href="#aV"/><use transform="matrix(0.05,0,0,0.05,63,0)" xlink:href="#aV"/></g><g id="R"><use transform="matrix(0.05,0,0,0.05,0,0)" xlink:href="#aS"/><use transform="matrix(0.05,0,0,0.05,9,0)" xlink:href="#aT"/><use transform="matrix(0.05,0,0,0.05,18,0)" xlink:href="#aV"/><use transform="matrix(0.05,0,0,0.05,27,0)" xlink:href="#ba"/><use transform="matrix(0.05,0,0,0.05,31.5,0)" xlink:href="#aV"/><use transform="matrix(0.05,0,0,0.05,40.5,0)" xlink:href="#aV"/><use transform="matrix(0.05,0,0,0.05,49.5,0)" xlink:href="#aV"/></g><path fill="#3a414a" d="M130-224c-62 0-78 43-78 106 0 64 16 108 78 108s78-45 78-108-16-106-78-106zm0 228C53 4 15-39 15-118c-1-80 37-120 115-120s115 42 115 120C245-39 207 4 130 4" id="bc"/><use transform="matrix(0.05,0,0,0.05,0,0)" xlink:href="#bc" id="S"/><path fill="#3a414a" d="M77 4H58l167-243h19zm-7-243c39 0 57 24 57 64 0 41-16 65-58 65-41 0-57-24-57-65s17-64 58-64zm-1 117c26 0 30-24 30-53 0-28-3-51-30-51s-29 24-29 51c0 28 2 53 29 53zm162-3c39 0 57 24 57 64 0 42-17 66-58 66-40 0-57-25-57-66s17-64 58-64zM230-8c26 0 30-24 30-53 0-28-3-51-30-51s-29 24-29 51c0 28 3 53 29 53" id="bd"/><g id="T"><use transform="matrix(0.05,0,0,0.05,0,0)" xlink:href="#aY"/><use transform="matrix(0.05,0,0,0.05,9,0)" xlink:href="#aV"/><use transform="matrix(0.05,0,0,0.05,18,0)" xlink:href="#bd"/></g><g id="U"><use transform="matrix(0.05,0,0,0.05,0,0)" xlink:href="#aS"/><use transform="matrix(0.05,0,0,0.05,9,0)" xlink:href="#aS"/><use transform="matrix(0.05,0,0,0.05,18,0)" xlink:href="#aV"/><use transform="matrix(0.05,0,0,0.05,27,0)" xlink:href="#ba"/><use transform="matrix(0.05,0,0,0.05,31.5,0)" xlink:href="#aV"/><use transform="matrix(0.05,0,0,0.05,40.5,0)" xlink:href="#aV"/><use transform="matrix(0.05,0,0,0.05,49.5,0)" xlink:href="#aV"/></g><g id="V"><use transform="matrix(0.05,0,0,0.05,0,0)" xlink:href="#aW"/><use transform="matrix(0.05,0,0,0.05,9,0)" xlink:href="#aV"/><use transform="matrix(0.05,0,0,0.05,18,0)" xlink:href="#bd"/></g><g id="W"><use transform="matrix(0.05,0,0,0.05,0,0)" xlink:href="#aS"/><use transform="matrix(0.05,0,0,0.05,9,0)" xlink:href="#aV"/><use transform="matrix(0.05,0,0,0.05,18,0)" xlink:href="#bd"/></g><g id="X"><use transform="matrix(0.05,0,0,0.05,0,0)" xlink:href="#aW"/><use transform="matrix(0.05,0,0,0.05,9,0)" xlink:href="#aX"/><use transform="matrix(0.05,0,0,0.05,18,0)" xlink:href="#ba"/><use transform="matrix(0.05,0,0,0.05,22.5,0)" xlink:href="#aW"/><use transform="matrix(0.05,0,0,0.05,31.5,0)" xlink:href="#aY"/><use transform="matrix(0.05,0,0,0.05,40.5,0)" xlink:href="#aV"/></g><g id="Y"><use transform="matrix(0.05,0,0,0.05,0,0)" xlink:href="#aU"/><use transform="matrix(0.05,0,0,0.05,9,0)" xlink:href="#aV"/><use transform="matrix(0.05,0,0,0.05,18,0)" xlink:href="#ba"/><use transform="matrix(0.05,0,0,0.05,22.5,0)" xlink:href="#aY"/><use transform="matrix(0.05,0,0,0.05,31.5,0)" xlink:href="#aV"/><use transform="matrix(0.05,0,0,0.05,40.5,0)" xlink:href="#aV"/></g><g id="Z"><use transform="matrix(0.05,0,0,0.05,0,0)" xlink:href="#aU"/><use transform="matrix(0.05,0,0,0.05,9,0)" xlink:href="#aY"/><use transform="matrix(0.05,0,0,0.05,18,0)" xlink:href="#ba"/><use transform="matrix(0.05,0,0,0.05,22.5,0)" xlink:href="#aR"/><use transform="matrix(0.05,0,0,0.05,31.5,0)" xlink:href="#aY"/><use transform="matrix(0.05,0,0,0.05,40.5,0)" xlink:href="#aV"/></g><g id="aa"><use transform="matrix(0.05,0,0,0.05,0,0)" xlink:href="#aY"/><use transform="matrix(0.05,0,0,0.05,9,0)" xlink:href="#aV"/><use transform="matrix(0.05,0,0,0.05,18,0)" xlink:href="#aV"/></g><g id="ab"><use transform="matrix(0.05,0,0,0.05,0,0)" xlink:href="#aX"/><use transform="matrix(0.05,0,0,0.05,9,0)" xlink:href="#aT"/><use transform="matrix(0.05,0,0,0.05,18,0)" xlink:href="#aX"/><use transform="matrix(0.05,0,0,0.05,27,0)" xlink:href="#ba"/><use transform="matrix(0.05,0,0,0.05,31.5,0)" xlink:href="#aR"/><use transform="matrix(0.05,0,0,0.05,40.5,0)" xlink:href="#aR"/><use transform="matrix(0.05,0,0,0.05,49.5,0)" xlink:href="#aZ"/></g><g id="ac"><use transform="matrix(0.05,0,0,0.05,0,0)" xlink:href="#aU"/><use transform="matrix(0.05,0,0,0.05,9,0)" xlink:href="#aY"/></g><g id="ad"><use transform="matrix(0.05,0,0,0.05,0,0)" xlink:href="#aR"/><use transform="matrix(0.05,0,0,0.05,9,0)" xlink:href="#aR"/><use transform="matrix(0.05,0,0,0.05,18,0)" xlink:href="#aX"/><use transform="matrix(0.05,0,0,0.05,27,0)" xlink:href="#ba"/><use transform="matrix(0.05,0,0,0.05,31.5,0)" xlink:href="#aU"/><use transform="matrix(0.05,0,0,0.05,40.5,0)" xlink:href="#aS"/><use transform="matrix(0.05,0,0,0.05,49.5,0)" xlink:href="#aS"/></g><g id="ae"><use transform="matrix(0.05,0,0,0.05,0,0)" xlink:href="#aU"/><use transform="matrix(0.05,0,0,0.05,9,0)" xlink:href="#aV"/><use transform="matrix(0.05,0,0,0.05,18,0)" xlink:href="#ba"/><use transform="matrix(0.05,0,0,0.05,22.5,0)" xlink:href="#aV"/><use transform="matrix(0.05,0,0,0.05,31.5,0)" xlink:href="#aV"/><use transform="matrix(0.05,0,0,0.05,40.5,0)" xlink:href="#aV"/></g><g id="af"><use transform="matrix(0.05,0,0,0.05,0,0)" xlink:href="#aU"/><use transform="matrix(0.05,0,0,0.05,9,0)" xlink:href="#aV"/><use transform="matrix(0.05,0,0,0.05,18,0)" xlink:href="#bd"/></g><g id="ag"><use transform="matrix(0.05,0,0,0.05,0,0)" xlink:href="#aT"/><use transform="matrix(0.05,0,0,0.05,9,0)" xlink:href="#aV"/><use transform="matrix(0.05,0,0,0.05,18,0)" xlink:href="#bd"/></g><g id="ah"><use transform="matrix(0.05,0,0,0.05,0,0)" xlink:href="#aY"/><use transform="matrix(0.05,0,0,0.05,9,0)" xlink:href="#ba"/><use transform="matrix(0.05,0,0,0.05,13.5,0)" xlink:href="#aV"/><use transform="matrix(0.05,0,0,0.05,22.5,0)" xlink:href="#aV"/><use transform="matrix(0.05,0,0,0.05,31.5,0)" xlink:href="#aV"/></g><g id="ai"><use transform="matrix(0.05,0,0,0.05,0,0)" xlink:href="#aU"/><use transform="matrix(0.05,0,0,0.05,9,0)" xlink:href="#ba"/><use transform="matrix(0.05,0,0,0.05,13.5,0)" xlink:href="#aV"/><use transform="matrix(0.05,0,0,0.05,22.5,0)" xlink:href="#aV"/><use transform="matrix(0.05,0,0,0.05,31.5,0)" xlink:href="#aV"/></g><g id="aj"><use transform="matrix(0.05,0,0,0.05,0,0)" xlink:href="#aT"/><use transform="matrix(0.05,0,0,0.05,9,0)" xlink:href="#ba"/><use transform="matrix(0.05,0,0,0.05,13.5,0)" xlink:href="#aV"/><use transform="matrix(0.05,0,0,0.05,22.5,0)" xlink:href="#aV"/><use transform="matrix(0.05,0,0,0.05,31.5,0)" xlink:href="#aV"/></g></defs></g></svg>